<svg xmlns="http://www.w3.org/2000/svg" width="390" height="336" viewBox="0 0 390 336"><style>.mk-min{fill:none;stroke:#CFCABD;stroke-width:.5}.mk-idx{fill:none;stroke:#B3AD9F;stroke-width:.9}.mk-water{fill:#D3DEE2;stroke:#9FB4BD;stroke-width:.75;fill-rule:evenodd}.mk-glacier{fill:#E6ECEE;fill-opacity:.5;stroke:none;fill-rule:evenodd}.mk-stream{fill:none;stroke:#9FB4BD;stroke-width:.6}.mk-river{fill:none;stroke:#9FB4BD;stroke-width:1.2}.mk-roadc{fill:none;stroke:#8C8A83;stroke-width:3.5;stroke-linecap:round;stroke-linejoin:round}.mk-road{fill:none;stroke:#FFFFFF;stroke-width:2.5;stroke-linecap:round;stroke-linejoin:round}.mk-minorc{fill:none;stroke:#A6A298;stroke-width:2.2;stroke-linecap:round}.mk-minor{fill:none;stroke:#FFFFFF;stroke-width:1.4;stroke-linecap:round}.mk-trail{fill:none;stroke:#8F8A7E;stroke-width:.75;stroke-dasharray:3 2}.mk-border{fill:none;stroke:#66686D;stroke-width:1;stroke-dasharray:8 3 2 3}</style><path class="mk-min" d="M-4 145.7l1.8-1.7 8.2-3.2 4-4.4 4.5-.4 1.5-13.8 2 1.8 3.8 8 4.2 3.6 2 .5 8-2.5 8-6.9 6-2.3 14-.5 16-12.7 8-.3.8 1.1-2.6 4-10.8 6-5.4 18-10-1-4 1.8-8.7 7.2-3.8 6 .4 4-7.9 1.9-4 2.5-4-.5-6 .8-4.7-4.7-5.3-.3-6 5.3-10 3M-4 269.9l6 .3 6-2.6 8-1.9 8 1.1 5.1-8.8-.5-6 1.4-3.8 6.3 1.8 5.7-.2 4-7 2 0 4 7.6 14 2.6 14 6 6-2.1 2 .8-.3 4.3 1.4 2 10.9 10.5 4.7 1.5 2.4 2-1.1 1.7-4 .3-4 1.6-10-9.2-6-2.6-4-.7-6 1.1-12-4.5-4 .1-4 1.6-2 1.4-2.1 5.2-4.7 4 5.2 18-4.4 5.9-4 2.1-6-.2-2-1-1.3-2.8 1.3-3.9 2-.7 4 2.1.7-3.5-2.7-4-6-1.2-3 1.2-1.9 6-5.1 5.9-8-1.9-6.4 0-1.6 1.3-3.4 10.7-4.6 10 1.4 4-1.4 2.1M-4 112.9l2.3-2.9 1.8-10-.4-6 8.3-2.2 2.5-7.8 3.5-3.4 10 .1 2 1.3.6 4-3 6-.8 8 7.2 10.5 2-.1 4-2.5 12 2.6 2-.6 6.7-5.9 6.1-12 5.2-4 2-.4 2 .9 8 6.3 4 .8 10-10.2 8-1.3 2-1.2-.3-10.9 2.3-2.6 6 3 8 2.5 6-2.5 12 1.1 10 4.7 1.6 1.8.5 4 9.9 8.4 4 .9 8-.3 6 .8 15 10.2 1 2-4 .7-2-.6-10-6.4-10 1.4-4 2.7-4-.3-10-3.3-12-6.2-6 1-10 4.2-2 5.4-4.5 5.4 1.1 4 3.5 6 .1 2-2.2.9-4-.8-6 1.6-6-.1-2 2.2-2.5 6.2.6 4 4.7 12-2.4 8 1.9 6 0 4-8.3-1.5-4 .4-6.7 3.1-3.4 4-5.9.2-2 1.6-.7 6.2-1.3 2.4-4-3.3-6-2.8-8 3.4-2 2.7-4.1 1.6-1.6 2-2.8 12 .5 6-2 2.5-2 .4-2-2.5-3.5-8.4-4.4-4-.5-4-3.6-1.7-2 .8-2 2.5-.5 2.4.4 6-2.1 6 1.1 6-.9 3.9-10 .3-6-2.8-2 .6-2 8-2 1.9M-4 249.2l6 2.6 6 0 2-1.3 2-3.6 3.1-8.9.5-6 4.4-1.3 14-.6 9.2-8.1 4.8-1.3 2.8 1.3 1.5 4 2 2 8.9 4 0 6 2.6 2 6.2-.2 6 4.4 2 .4 2-.6 6-9.6 4-1.3 2 .6 2.9 6.3 3.1 2.9 4 1.3 8 0 2 1.4.3 2.4-2.7 4-.4 4-1.2 2.3-3.3 1.7-.4 2 1.7 2.4 6 3 18 3.8 12-5.3 4 1.5 4 4.9 10-5.5 2 1.2-3.4 10 1.4 10.2-6-2.6-4-.2-.9.6.4 4-1.5 1-6-2.5-4-.1-6-2.8-8 3.4-2 9.5-2 2.4-10-4.2-2 .1-2 1.4-1.3 1.8-.5 4 2 10 2 4 1.3 6-1.5 1.6-8 0-6.5-3.6-1.2-2-1.3-6-7.7-12-1.3-6.3-1.9-3.7-12.1-3.4-1.3 1.4.2 2 4.6 8 1.4 6-.6 2-3.4 2-.6 2 8.9 18-1.2 1.8-2 .7-10-.6-6.8 2.1-3 4-.7 4M306.4 342l-6.4-7.8-.7-2.2-1-6 1.7-7.5 2 .7 6.2 12.8 5.8 4.1 10 3.9 2.2 2M25.7 342l-.9-6-2.7-8 .7-2 1.2-.2 8 4.5 12 4 2.4 3.7.5 4M-4 59.2l8-.1 4 1.7 4.1 3.2 7.9 2.3 2-.5 4-3.2 6-1.6 7.9 1 2.1 11.8 2 2.3 2-.2 5.7-1.9 6.3-3.6 1.8-6.4 4.2-4.5 8 .6 10 4.3 2 .1 2-1.2 6.7-9.3-3-12 .3-2.3 2-.7 4 2.8 8 2.3 6 4.4 6-.1 6 5.1 10-5.6 2.4 2.1-.1 4 1.7 4 6 2.7 6 5.3 2 .8 2-.4 6-5.9 2.2-.5 2.4 10-1.3 8 .5 2 2.2 2.5 2 .8 6-.3 10-6.1 6-2.1 2 .3.3 2.9-1.8 8 .3 2 1.8 2 5.4 3 16 3.8 4 .6 6-.9 4 6.9 3.2 2.6 12.8 4.7 6 0 14 4.9 8 7.4 18.4 9 5.8 6-2.2.9-4-1.7-6-.8-6-2.7-8 1.2-8-1.2-10-2.8-2 .5-4 3.2-2 .1-11.4-2.7-18.6-8.7-12 .7-6 1.6-8-3.3-6-.2-10 1.2-6 4.2-6-1.4-3.1 1.9-.4 8-1.8 4-10.7 7.9-4 .9-10-2.1-2.6 1.3-.4 2 2.5 16 2.9 4 8 4 .3 2-2.7 4 0 6.1-4 1.8-12-.3-6 2.4-10 1.4-6 2.8-6 .5-9.1 5.3-4.9 4.2-6 1.5-8-2.1-2 .5-1.6 1.9-.6 4 3.1 6 2.5 2 4.6 1.3 4 3.4 2 .6 12-2 4-2.4 4-.4 5.2 3.5 4.7 8 2.1 1.2 12 2.7 8-.1 1.7 2.2 2.1 18 2.2 1 12-2.7 4 .9 4 3.3 2 .6 4-.8 2.2-2.3-.8-6 .6-1.1 6.2-2.9 3.4-6 1.9-6 12.5-9.1 4.8 1.1-4 14 3.2 8 0 2-2 .9-6 .3-1.2 8.8-4.8 3.3-1.3 4.7.8 6 4.2 8-1.1 6 1.8 2 9.3 4-2 6 5.3 10 .6 2-.7 2-.9.9-6-.7-4 1-5.1-5.2-4.9-.7-2 .9-2 12.4-2 2.7-6-2.6-4 1.3-6-2.3-2-1.7-.4-6-2.9-10-2.7-.9-2 .5-2.2 2.4-1.4 8-2.2 6 4.7 10-1.8 10 .7 4M279.2 342l1.4-4 0-14 2.2-6-.3-2-4.2-8-3.7-2-2.2-6-8.4-5.3-3.3-4.7-2.7-2.1-1.1-1.9.4-2 2.7-4.3 8 4.1 10 1.8 6-1.8 6 6.4 2 .4 3.9-2.6 4.1-7.4 4-1.8 6 11.3 4 4.7 2 1.6 6 1.5 2 2 .2 10.1 3.8 7.3 14 7.1 6 .1 6-1.8 2 .8 2 2.8 6 2.7 4-.4 6.3-2.6 1.5 2-1.2 6 1.4 8M206.5 342l-4.1-4-.5-2 10.1-9.9 3.6-8.1 2.4-1.6 8.7 9.6 8.6 4 1.7 12M135.9-4l.6 4 1.5 1.2 4 1.1 4 3.3 4 .7 6 4.2 4 .6 6-1.3 4 1.1 4 5.1 4.4 4 5.6 3.3 2 2.8 4 2.5 4 .5 2 1.7 4.3 7.2 2.5 8 5.2 4.1 4 4.7 8.2-2.8 5.8-9.8 4 2.2 2 3.6-1.3 6 .5 4 2.8 2.2 4 .1 3.7 1.7.8 2-.9 6 1 4 3.4 3.6 4.5 2.4 3.5 3.5 8.5-1.5.6-2-7.3-4-.3-4 6.5-10.7 4-.2.8.9-.3 6 1.5 1.9 2 .8 8-.3 2 7.7 16 8.8.7 1.1-.9 2-5.5 4-1.6 2-.1 2 13.4 11 8 4 10-.6 4.3-4.4.6-6-.7-2-3.5-4-2.9-8 4.6-4-1.2-12 .8-.8 6.3-1.2 1.7 1.8.8 4.2 1.2 1.4 6 2.5 2 4.5 2 1.5 4-1.3 10 .8 1.1 2.6-.3 4 1.2 2.5 6 2.4 4 3 4-1 2 .6 2 4.1 2 2 5.2.4 1.6 2-3.4 6-1.4 1-10 2.1-6.1 2.9-1.9 1.9.2 4.1 1.8 4.1 8 6 10 2.6 1.8 1.3 2.2 8 6 6.3 4 .3M234.8-4l1.2 2 4 2 16-3 4 2.1 8 7.1 2 .1 6-2.4 4.4.1-1.9-4-5.8-4M239.2 168l2.8-.6 4 1.8 6.5.8 10.7 6 4.8 3.8 2 .9 6 .4 6 4.7 10 3.1 10 8.8 6 3.6 4 7.3 2 1 4-.3 6 5.6 6 .8 3.6 6.3 6.4 6.8 6 2.5 6 6 4 2.5 2 5.5 6.5 4.7 5.5 1.6 4 3 8.1 15.4-.1 4.4-2 1.2-4-1.5-4-5-8-5.1-2-3.4-2-.2-4 8.5-6.2 1.1-1.2-6-4.6-6-3-8 .1-4 .9-1.9 2.9-2.1-.9-.5-8 3.2-6 4.4-2 .4-6-1.4-4.7 3.9-3.3.8-3.4-.8-6.6-3.8-6 .8-8-3.4-14.5-9.6 4.9-8-.5-2-4-2-1.2-2 1.3-2.1 3.4-1.9 1-2-.6-4-3.8-2.1-4-.6-6 4.5-6.1.2-1.9 1.9-1 4.1-1.5 2-9.5 5.9-6 1-4 2.5-.4-3.4 4.8-6 1.5-14-1.9-2.7-6.2-3.3 1.1-2 7.1-4.6 3.9-5.4-1.2-2-5.7-2-11-8 .4-2 3.6-3.4 7.2-4.6M219 170l1-1.2 2 1.7 2.9 5.5-.9.6-2-.5-2.9-4.1-.1-2M293.4-4l-1.6 4 .6 2 1.6.9 9.8 1.1 4 8-.5 4-5.3 2.4-1.9 1.6-.3 2 1.2 2 8.3 6 .7 4-6-1.6-8 1.2-5.6-3.6-3.4-6-3-2.7-10-4.3-10.7-1-2.9-2-3.1-4-5.1-2-4.2 1-5.8 3-3.6 6-.1 2 7.5 5.2 6.7 2.8 1.4 2 .1 4 1.8 1.2 12 2.4 6-.5 3.6.9 4.4 7.5 7.8 2.5 1.5 2-1 6 1 2 6.7 3.3 4 1 6-1.5 6-6.9 12 2.9 8-1.7 4.5 2.9 2.7 8 2.8 2.9 10 4 8-1.8 3 .9 5 5.4.3 6.6 1.7 2 6-1.3 4 .8 1.6 6.5 2.4 1.1 10-2.2M396 71.7l-3.4-1.7-1.1-4-2.4-4 .7-2 3.9-4-.8-8 1.1-1.8 2-.6M349.6-4l-1.6 4.1-16 .3-4 1.5.1 2.1 4.2 4 1.7 4.2 4 .6 2 1.3 1.5 3.9-1.2 8 3.7 1.7 8-1.6 4 1.6 4-.7 3.6 1 2.2 2-4.4 8 .1 2 6.6 4 1.9 4.9 2-.6 4-5.5 2-.7 4 2.3 3.3-6.4 3-2 .8-2-5.8-10-1.3-4.1-9.5-9.9-1.2-2 .1-2 8.6-2.7 4-2.3 6-.8 6-4.1"/><path class="mk-idx" d="M34.3-4l2.5 2 7.2 2.6 8 1.7 8.5 7.7 0 6 3.5 12-.7 8-1.4 4-3.5 2-4.4.7-8-1.7-4-2.4-8-7.6-4-1.3-8 5.7-4-.4-4-2.8-2 .8-3.4 11-1.4 2-5.2-.3-6-1.8M85-4l1.6 8 5.4 3.5 2 3 2 .7 8-1.9 4-2 2.3.7 1.1 6 4.3 4-.4 2-7.3 1.8-2.3 2.2.2 4 4.5 4 7.9 4 5.7 1.2 6-4.6 8-2.5 2 1.1 2 3.9 4.6 2.9 3.4 6.3 2 1.2 6-1.2 6-3.8 2 .2 2 2.9 5.8 4.4 2.2 11.4 2 1.8 2 .2 6-2.6 6-.9 4 .6 2 1.4 5.7 12.1 4.8 4 5.5 8.5 4 .6 6-2.9 2 0 9.1 7.8 1.2 6 3.7 2.8 10 1.4 6 1.9 5-4.1 3-.3 2.5 6.3 7.5 5.8 2.5 4.2 3.5 1.2 4-1 4 .4 4 2.6 1.9 4.8 1.9 2 7.5 2 2.7 2.5 2 .8 6-1.4 2 .7 4 3.8 4-.9 1.8-1.5 2.2-4.3 5.4-3.7 11.1-12 1.7 2-.6 10 4.1 6-.6 2-3.1 2-.5 2 1.8 10 6.7 5.4 4-2.6 2 .5 4 3.5 5 1.2.2 2-2.8 6 1.6 1.4 6-1.2 2 1 .3 6.8 1.7.9 6-1.5 1.7.6.6 6 5.7 6.7 4 1.6M396 330.9l-2-1.4-3.2-7.5-4.2-4-2.6-10.9-2-2-8 4.7-4 .4-4-1.8-6-5.4-6 .3-8-2.7-6-.5-2.1-2.1-2.2-6-5.7-5.1-6.4-2.9-3-8-.7-6-2.8-6-3.1-1-6 .8-12-1.4-8 3.1-4-1.1-4 1.1-2-.4-4-3.1-4 .7-2-.5-6.8-12.2-1.1-6-2.1-.8-5.7.8-2.8 6-3.5 1.5-4 .3-10.6 8.2 0 2 3.8 6 1.2 6-.8 12 1.7 6-2.1 4 .2 2 8.6 7.5 6.5.5 5.6 8 .4 4-2.2 4-6.3 1-4-3.4-8-4.1-10-9.4-4-2.4-6-1.6-6 2.3-2-.3-1.5-2.1 1.2-8-2.5-8-8.8-8-2.8-4 .3-2 4.1-3.3 4-5.2 8-.3 2.9-1.2 0-4-4.9-10-.8-6 4.8-10 5.9-2 .5-8 2.8-6-6.6-4-.6-8.3-2-1.5-6 1.1-16-.9-4 1.1-2-.7-3.5-6.8-2.5-.7-2 .8-5.1 3.9-4.6 14-5 4-9.3 1.6-2.2 2.4-.2 2 4.4 6 .8 4-6.8 3.2-1.6-1.2-.2-6-2.1-6-4.1-3.2-8.4-2.8-2.5-2 23-12 1.7-10-.5-8 .7-2.4 5.3-5.6 1.7-8-1.1-6 .4-2 1.7-1.6 8-.6 3.2-1.8 1.8-2 3.2-8 3.3-4 2.5-1.4 4 .9 6 3.5 2.4 3 3.6 1.1 2.3-1.1 2.2-6 2.7-4 4.8-1.1 8 1.7 6 4.4 6 1 2 1.7 6 1.5 12 6.4 4 3.1 8 .8 24 10.9 15.7 3.6 6.3 4.8 14.3 7.2 9.7 8.3 10 3.9 8.4 7.8 11.6 6 12 13.1 20 5.1"/></svg>
