<svg xmlns="http://www.w3.org/2000/svg" width="390" height="336" viewBox="0 0 390 336"><style>.mk-min{fill:none;stroke:#CFCABD;stroke-width:.5}.mk-idx{fill:none;stroke:#B3AD9F;stroke-width:.9}.mk-water{fill:#D3DEE2;stroke:#9FB4BD;stroke-width:.75;fill-rule:evenodd}.mk-glacier{fill:#E6ECEE;fill-opacity:.5;stroke:none;fill-rule:evenodd}.mk-stream{fill:none;stroke:#9FB4BD;stroke-width:.6}.mk-river{fill:none;stroke:#9FB4BD;stroke-width:1.2}.mk-roadc{fill:none;stroke:#8C8A83;stroke-width:3.5;stroke-linecap:round;stroke-linejoin:round}.mk-road{fill:none;stroke:#FFFFFF;stroke-width:2.5;stroke-linecap:round;stroke-linejoin:round}.mk-minorc{fill:none;stroke:#A6A298;stroke-width:2.2;stroke-linecap:round}.mk-minor{fill:none;stroke:#FFFFFF;stroke-width:1.4;stroke-linecap:round}.mk-trail{fill:none;stroke:#8F8A7E;stroke-width:.75;stroke-dasharray:3 2}.mk-border{fill:none;stroke:#66686D;stroke-width:1;stroke-dasharray:8 3 2 3}</style><path class="mk-min" d="M52.7 342l2.6-8 2.5-4 2.3-2 3.9-1.2 10 3.6 6 4.8 2 .5 12-1.1 6 1.1 8 3 22-.3 3.6 1.6.7 2M8.3 342l-4-6 3.7-2.1 18-4.4 8 4 4.5 8.5M-4 298.4l8 4 6 .6 24-2.4 16 2.5 12-3.9 12-.3 19.7 7.1 4.3 7.2 4 2.4 4 .4 12-1.4 10 3.8 4-1.4 6-4.6 4-1.8 22-4.2 1.5 1.6-.1 2-1.9 8-9.3 18-1.8 6M-4 286.4l16 3.3 22-1.4 12 1.9 8-.6 12-3.4 12 .4 12 3.3 12 5.3 7.4 6.8 10.6.6 8 4.4 2-.4 10-6.7 50-16.8 4 2.9 2 3.9 1.3 4.1-.2 4-3.1 1.9-10 2-5.2 4.1-4.3 8-4.2 12-6.8 8-3.4 8M-4 275.6l20 1.7 20-2.2 14 3.5 12-2.9 30-.1 8 1.9 24 12.5 4 1.7 4 .3 14-4.8 26-11.7 4.7-3.5 5-6 6.1-14 2.2-3 4-.5 8 .9 2.6 2.6 2.9 24 6.3 20-3.8 17.8-2 1.3-12-.6-8-1.8-4 1-2.8 4.3-3.1 14-3.2 4-5.9 4-1.4 2M337.9 342l8.1-14.3 8.3-3.7 5.7-12.6 4.4-5.4 13.6-3.4 18 6.1M-4 265.5l20 2.1 6-1.2 12-4.6 16 3.4 8 .5 44-3.9 8 3.4 20 14.6 6 .6 22-10 11.2-8.4 2.1-4 5.8-30 .9-2.2 2-1.2 32 8.1 2.9-.7 7.1-5.5 4-1.8 6-.6 10 .9 1.3 1-.4 2-7.1 10-3.8 10.9-8 8.1-1.8 3-1.1 12 1.7 8 5.8 12 3.4 4.5 4 3.4 10 5.3 24 6.8 2.7 2 1.2 4-.6 6-1.3 2.5-4 2.6-10 3-7.5 9.9M313.9 342l-.7-16-6.4-14 .4-2 1.9-2 30.9-7.3 4-2.7 6-7.2 20-6 10-7.4 4 .7 12 5.1M185.1 342l4.9-14.1 1.7-1.9 2.3-.5 4 1.1 4 2.8 12.7 12.6M89-4l1.2 6-.6 4-3.6 8.3-2 2.5-2 .7-12-2.6-6 .2-14 5.5-12 .1-6 3.7-4 1-14-4.1-7.1.7-2.9 3.5-7.1 18.5-.5 4 1.7 10-2.1 4.1M-4 151.6l10-14.5 2-1.9 4-1.1 4 1.1 4 2.6 6 6.9 4 2.3 8 .3 6.6-1.3 3.9-4 4.3-14 7.2-12.1 16-11 4-1.1 2 .4 12 6 8 10.2 4.8 9.6 7.2 6.1 6 .7 14-5.9 10-.6 12.7 3.7 5.5 6 3.8 2.4 12 1.7 4.8 1.9 1.3 2-.4 2-9.7 8.3-3.2 3.7-2 4 2.6 20 2.6 3.3 16 8.8 6 1.7 6 .1 10-3.7 12.8-.2 5.2-2.9 3.1-5.1 4.9-12.8 11.1-11.2 2.2-4 .5-4-1.6-14 2.4-6 11.4-14.6 12-8.4 4-1.5 12 0 4 2.5 1 2-.2 10-5.7 14-1.4 8-8.6 18-.8 4 1.7 2.6 10.9 5.4 11.1 8.3 6 2.5 12.1 3.2 1.9 3.1 1.1 10.9 3.8 8-6.8 18-6.1 4.3-7.1 7.7-1.3 4 1.1 2 5.3 2.9 4 .9 2.8-1.8 3.2-6.5 2-1.9 4 1.4 8 7.1 14 4.8 4-1.5 4.2-7.4 2.4-2 15.4-3.3 4 .8 14 7.4M112.5 164l5.5-1.5 10 1 3 2.5 1.6 4-.7 6-12.8 20-.2 4 1.1 3.2 2 2 10 4 10.1 8.8 7.9 4.4 3.2 3.6.9 4-1.1 12-8.7 14-2.3 1.3-4-.5-8.4-6.8-9.9-12-3.7-6.6-4-3.1-4 1.1-13.2 10.6-8.8 4.1-20 4.2-8-1.1-6.7-3.2-9-10-4-10 .3-8 2.5-14 2.1-6 2.6-4 14.2-13.2 12-6.3 14 1.9 12 4.5 4 .1 2-1.8 4.1-9.2 4.4-4M8.2 232l4.4 0 2.6 4 0 10-1.2 2-2 .8-8-1.6-2-1.8-1.6-3.4 1.2-6 2.4-2.3 4.2-1.7M113.9-4l-8.1 16-3.3 10-12.5 20.6-2-.4-12-7.4-6-6-4-1.4-4 1-14 7.5-24 6-6.9 4.1-1.3 4 2.7 8-.6 8-2.1 4-10.4 10-3.6 8-.7 4 1.8 10-.2 8 1.3 1 2-.6 4.5-2.4 8.1-2 3.2-2 2.2-4 1.9-10 2.1-2.4 16-.5 14-6.7 10 1.6 4-1 2.8-5 3.8-16 3.4-4.5 8-7.2 4 3.2 5.1 8.5.3 4-1.5 8 .5 4 1.6 2.3 6 3.1 4 5 10.9 7.6 1.8 4 1.3 8 2 2.2 6 1.4 4-.4 8-7.7 10-4.7 6 .6 12 8.9 4 1.6 4-1 10-6.7 36 11.1 2.9 2.7 5.1 9.2 2 .7 14-10.5 10-12.5 10-6.8 16-4.7 10 4.3 4-.3 2.8-1.4 1.6-2 3.1-10 5.1-8 2.8-8 .6-.9 2 .1 6 8.7 4 10.1.7 6-2.7 10.4-5.6 9.6-6.4 15.4-1.6 10.6 1.6 2.1 4 .4 10-6.2 8 .3 18-6.7 6 1 3.7 3.1-.6 16 5.4 8 1.4 4-.5 4-5.8 16-2.5 10 .1 6 2.7 10 .1 8-1.4 4-2.6 2.5-1.8 3.5 1.8 1.2 6-3.7 4 .6 8 5.2 13.3 12.7 4.7 2.8M227.6 150l2.4-1.4 2 .6 3 2.8 1.3 4-2.3 3.4-4 1.3-5.4-.7 1-6 2-4M213.3 162l6.7-1.3 3.9 1.3.8 14-1.1 6-1.6 1.7-2 .1-8-3-2 .2-6.8 7-3.2 1.9-4 .1-2-.9-2.9-3.1-1.5-4 .4-4 2-3.5 6-4.1 8-1.5 7.3-6.9M69.2 196l2.8-1.6 4-.2 6 .4 4 1.8 2.7 3.6 1.5 4 3.3 18-3.5 6.5-8 4.1-9.9 9.4-4.1 1.9-4 .2-5.5-2.1-4.1-4-2.5-6-.3-10 6.4-15.1 11.2-10.9M181.2-4l-3.6 12-2.5 4-3.1 2.6-4-.5-14-10.1-6-2.8-4 .2-8 3.8-6-.4-4 3-6.7 20.2-5.4 8-1.5 6 2.7 22 3.6 8 3.3 1.8 4-.3 6-4.2 4-.9 3.6 3.6 6.4 9.2 2-.2 6-4.6 10 2.1 6-2.4 14-1.5 2 .4 8 5.8 27.2 9.2 10.8 2.3 6 4.5 4 1.3 4-2.1 6-6.5 8-3.3 6-6.1 6-3.2 6-5.4 4-.7 6 .7 4-1.9 10-18 3.6-9.6 2.1-10-1.2-10 .5-4 1.8-2 3.2-.4 10.8 4.4 1.8 2 .7 10 2.7 10.6 2 3.4 6.6 4 3.4 4 6 15.1 3.8 14.9-.4 8-2.3 4-5.1 4.6-1 3.4.6 2 4.9 2 5.5.6 6-4.2 4-.9 16 2.5 2.7 2 .8 2-1.5 14 .2 8 .8 4 3.7 8 .6 6-.9 6-7.3 22 .5 24 2.2 4 14.2 16.8 2 1.3M52.7 48l7.3-1.2 4 1.8.7 3.4-.7 12.4-2 1.4-10 .5-12 6.9-4-.9-3.4-4.3-1.4-4-.1-4 1.2-4 3.7-3.3 10-1.8 6.7-2.9M64.9 220l3.1-1 1.6 1 1.2 6-2.8 11.5-2 1.5-2 0-4-3.2-.9-5.8 2.3-6 3.5-4M197.2-4l-4.7 10-8.5 23.8-3.8 6.2-.3 4 .9 4 1.6 2 7.6 4 7.5 16 4.5 4.2 6 2 10-1.1 4 .7 16 6.4 22-10.5 9.7-7.7 14.3-4.8 9.3-7.2 2.7-6-1.7-14 1.7-21.3 2-3 8-3.1 2.7-4.6M315-4l3 8.1 2 2.2 2 .2 2.2-2.5 2.1-8M341.2-4l1.9 10-3.2 12-4.2 10 0 4 2.3 3.1 8-.3 4 8.4 5 6.8 5.6 12 .3 10 2.9 6 2.9 10 3.3 3.7 4 1.6 6 0 10-2.8 2 .3 4 2.6M153.9 30l2.1-1.5 6 4.5 4.6 7 .5 6-1.3 2-3.8 2.3-12 1.6-2-3.7.4-4.2 2.2-8 3.3-6M396 131.5l-2-3.4-1.1-6.1 1.1-11.3 2-4.6M396 205.9l-3.8-3.9-2.3-6-.5-20 .6-4.2 4.8-9.8 1.2-5.5M272.3-4l-.6 10 2.9 16-1.4 6-5.2 4-4 1.7-10 .1-2.1 2.2-3.9 8.9-2 1.9-2 .5-16-6.6-6-7.8-2.6-8.9-5.4-5.5-1-2.5 2.3-6 10.7-10.7 8-2.6 12.9-.7M396 50.6l-6-.3-4-3.1-8.8-11.2-2.3-6-.9-22.5 2.1-3.5 11.6-8M230 10l2-1.4 4-.4 6.2 3.8 1.6 2 .8 4-2.6 4.5-2 1.6-4 .9-4-2-3.3-7 .2-4 1.1-2M396 30.4l-8-10-1.3-4.4 1.3-3.5 2-1.2 6 .6"/><path class="mk-idx" d="M-4 316.3l10 2.4 22-4 6 .2 4 1.9 4.6 9.2 1.4 2 2 .3 10-12.3 4-2 4-.5 18 1.5 2.1 1 3.3 6 2.6 2 8 .4 10 2.1 10-.7 12 3 10-5.3 4-.7 3.2 1.2.9 2-3.2 16M41.3-4l4.7 4.3 4 1.8 14-2.9 2.4-1.2.9-2M-4 255.3l16 3.6 4-.5 4.7-2.4 7.3-7 4-2 6 .7 12 6.4 8 1.7 12-.6 36-7.3 8 3.5 20 15.3 4 .8 8-1.5 8.5-4 7.5-11.3 1.6-6.7.9-14-.4-6-2.1-6.2-9.1-11.8-3.1-6-.8-6 1.9-6 1.1-.8 2 1.2 5.1 7.6 3.9 4 9 5 18 6.2 14 1.1 14-4 12-1.8 4-1.7 4-3.7 12-15.1 14-8.3 2 0 2 1.7 1 2.6-1 10 3 10-4.7 10-.7 6 .7 4 2.3 6 3.4 4.8 10 2.8.8 2.4-2.8 5.6-6 4.2-8 1.9-8.2-1.7-1.4 2-.6 4-2.9 4-14.9 7.4-2.8 2.6-1.6 4 .6 4 1.8 2.5 10 7.8 8 2.1 4-.5 4-2.1 4.5-5.8 6.6-16 2.9-2.3 4 1.3 4.2 9 3.8 3.2 4-.3 8-5.5 4 .2 4.2 6.4 3.8 3.6 16 7.7 5.2-1.3 6.8-6.3 12-3.3 14-6.7 6-7.5 4-2.1 10 0 10 4.6M-4 193.7l8-.5 2.7.8 1.2 2 2.4 12-.8 2-2.5 2-11 5.8M283.1-4l-.2 8 2.2 32-1.1 5.1-2 1.7-8 2.3-14 6.7-8 7-12 3.9-4-1.3-6-4.1-8.1-1.3-5.9-2.5-2.9-3.5-3.1-6.4-6-5.4-3.8-8.2-1-6 2.7-12 1.9-4 6.5-8 1.8-4M360.8-4l-.9 10-3.7 10 4.2 10-.3 8 1.2 4 12.7 18 3.1 12 2.9 3.5 4 0 12-2.6"/></svg>
