<svg xmlns="http://www.w3.org/2000/svg" width="1440" height="640" viewBox="0 0 1440 640"><style>.mk-min{fill:none;stroke:#CFCABD;stroke-width:.5}.mk-idx{fill:none;stroke:#B3AD9F;stroke-width:.9}.mk-water{fill:#D3DEE2;stroke:#9FB4BD;stroke-width:.75;fill-rule:evenodd}.mk-glacier{fill:#E6ECEE;fill-opacity:.5;stroke:none;fill-rule:evenodd}.mk-stream{fill:none;stroke:#9FB4BD;stroke-width:.6}.mk-river{fill:none;stroke:#9FB4BD;stroke-width:1.2}.mk-roadc{fill:none;stroke:#8C8A83;stroke-width:3.5;stroke-linecap:round;stroke-linejoin:round}.mk-road{fill:none;stroke:#FFFFFF;stroke-width:2.5;stroke-linecap:round;stroke-linejoin:round}.mk-minorc{fill:none;stroke:#A6A298;stroke-width:2.2;stroke-linecap:round}.mk-minor{fill:none;stroke:#FFFFFF;stroke-width:1.4;stroke-linecap:round}.mk-trail{fill:none;stroke:#8F8A7E;stroke-width:.75;stroke-dasharray:3 2}.mk-border{fill:none;stroke:#66686D;stroke-width:1;stroke-dasharray:8 3 2 3}</style><path class="mk-water" d="M249.8 394.4l-4.4 3.3-3.5.6-2.7 5.3-3.4-5.4 3-4.3 2.4-1 2.6.9 3.8-1.6-.6 1.8 2.8.4z"/><path class="mk-water" d="M337.8 480.8l.9 5 2.2 2.7 5.4 2.1 2.8-6.2-2.6-5.2-2.9-2-4.2-4.8-1.5 4.8-.1 3.6z"/><path class="mk-water" d="M398.1 471.4l1.8-.6 5.9 5.3.8 2.6 5 2.1 3.6 3.9 1.7.6 1 1.9-.3 2.4 2 2.2 5.1 1.2-.1 2.2-8.3-1.8-7.3-6.9-4.8-1.5-4.5.7-4.2 4.8-7.9-2.6-4.4-5.4-4.9.8-4.9-3.8 1.3-2.5 3.4-3.2 3.4-1.7 4.5-.3 3.4 2.5 3.9 5.6 3.3-1 3.3-2.5-2-3.8.2-1.2z"/><path class="mk-water" d="M719.4 504.7l-1.9-.2-7.2 12.3.1.6 4.5-5.6-3 5.5.2 1.8 1.6-1.4 2.4-4.3 2.1-5.4 1.4-.5 0-1.7 1.2-1-.2-.8-.7-.2-.5.9z"/><path class="mk-water" d="M755.7 533l.8-1.3-1-.7-4.2 1.1-1.8 1.4-4.5.6-2.1 1.1-1.6.1-1-2.7.4-2 1.8-3 2.2.1 2.1.8 2.1-.4.2-1.1-7.1-1.4-1.1.6-2 4.5-.4 2.4 1.6 5 11.1-3.1 4.5-2z"/><path class="mk-water" d="M656.1 561.9l-1.7 5-.3 3.5 8.7 2.1 2.4-1.7 1.5-6.4-10.6-2.5z"/><path class="mk-water" d="M720.7 528.3l8-9.1.7-2.2 2.3-2.7.3-4.2-.8-.3-2 4-2.2.3-2.3 3-1.8 3.9-.2 2 .9-1.2-2.4 4-.5 2.5z"/><path class="mk-water" d="M796.9 605.8l9.5.5.6-.5 0-2.5-10.7-.3.6 2.8z"/><path class="mk-water" d="M630.4 441.7l2.2 4.3-3.5 2.4-2.4-2.1-1.5-3.4 1.3-1.3 1.5-.1 1 4.4 1.7-.3.2-.8-2-2.6 1.5-.5z"/><path class="mk-water" d="M723.9 488.7l0-1.7-.8-1.8 1.9-.4-.2-3.3 2.2-1 .8-6.5 1.2-2.5-2.1-1.8 1.5-3.2-1.3-2 0-1.8-3.7-2.5-1.5.5-1-.9-3.7.1-2.7-1-3.3 2.9-.9 2.6.4 4.2 1.4 3.5.9.1.7 3.9 1.7 3.3 3.2.4.5 3.6 2 1.7.5-1.7.3 1.9 2 3.4z"/><path class="mk-water" d="M700.1 450.5l3.3-3.1 4.9-1.3 4.7 1.7 3.7 2.7-7.7 1.6-3.4 2.2-1.8 2.1-1.9-.6.5-2.8-2.3-2.5z"/><path class="mk-water" d="M591.3 331.9l-2.3 1.6 4.6 4.5 1.3 3.2-2.6 2.7 1.3.6 2.2-1.5 1.7-2.3 0-2.7-1.2-1.7-2.6-1.2-2.4-3.2z"/><path class="mk-water" d="M817.7 447.6l4.6-2.8 4.7-1.5 2.2 2.2-1 3.3-4.9 3.2-2.4-2.6-3.2-1.8z"/><path class="mk-water" d="M1039.6 633.5l2.9.3 3.4 2.1.9-.9.2-2.3 1-.8 1.8.7 1.3 1.5-2.3 6.1-10-3.2.8-3.5z"/><path class="mk-water" d="M1171.6 648l1.9-9.6 1.3.7 1.1-1 2 1.7 1-.6.3-1.8 1.7 2 .4 5.1.7 1.2-.5 2.3z"/><path class="mk-water" d="M53.9 282.2l.4-3.4-.8-6.1-1.9 1.7-1 2.5-.9.2-1.3 6.7 0 3.4.5 2.2.8.5 3.5.4.9-.4-.2-7.7z"/><path class="mk-water" d="M97.2 106.1l-1.5 1.3 1 3.5-.6 2.5.7 4 1.3 2.6.8.1-.7-2 .9-1.2.3-5.7-1.3-4.7-.9-.4z"/><path class="mk-water" d="M183.4 93.2l.5-1.7 1.2-.9 3.1-.8 1.5.5 1.1-1 2.6-.2 4 1 1.2 1.7.5 4.4-.4 1.1-5-1.1-1.8 1.1-1-.3-3.7 1.2-4 2.4-1.3-.4-2 .8 2-5.9 1.5-1.9z"/><path class="mk-water" d="M232.2-1.7l5.1-1.3 1.1-2.8 2.6.5 1.7 1.7 3.1.5 1.2-4.9-19.7 0-.4.8 5.3 5.5z"/><path class="mk-water" d="M1145.8 216.4l1.6-1.8 1.2-.3 2.9 1 1 2.2-.2 2.6.8 1.8.5 4.5-6.3-3.8-.4-2.1-1.3-2 .2-2.1z"/><path class="mk-water" d="M1420.9 303.7l1.8 3.5 5.6 3.7.7 1.5-.3 3.9-2.8-.3.4-2.2-.4-1.5-7.7-6.9-.3-1.3.6-.9 2.4.5z"/><path class="mk-water" d="M1368.9 337.6l.9 2.2-.1 2.2-.4 2.2-1.1 1.2-5.6 2-2.2-1.2-2-2.6-1.7-7.6-1.1-1.2-3.7-13.2 2.2-.3 3.1 2.5 3.8 6.5 5.3 5.4 2.6 1.9z"/><path class="mk-water" d="M1393.2 252.7l-2.4-2.2-11.9-4.7-3.1 1.2 8.9 3.8 4.7 5.5 3.2-2.5.6-1.1z"/><path class="mk-min" d="M37.1-4l-1 2-2.1 1.2-6 .3-2 1.2-.7 7.3-5.6 8-5.3 24-1.4 10 .6 8-.9 6 1 6 2.3 3.3 4.2 2.7 2.4 8 7.2 8 3.5 6 1.3 4-.7 4-3.9 2.9-12 3.2-8-1.2-2-1-4-4.4-1.9-3.5-.4-8-2.5-10 .1-12 1.8-8-.1-8-1.5-4-1.5-1.8-2-.7M73.1-4l2.6 10-3.6 8 .3 6 3.6 8.3 8 10.9 5.2 4.8 1.2 4-6.4 8.2-10 3.1-8 1-2.6 1.7-.4 6 4.7 10 1.2 8 2.6 8-.2 8-6.1 14-7.2 5.5-3.5 8.5-2.5 3.6-2 1.7-14 6-3.5 4.7.5 8 5.7 6 .8 4-1.2 6-4.3 8-1.5 12 2.2 6 5.3 2.3 20 .8 3-3.1 1-10 2 .4 10.9 7.6 1.8 4 1 8 4.3 5.7 4 1.1 8-4.4 2-.2 2 1.3 3.8 8.5 4.2 1.4 2.8-1.4 2.7-4 .6-4-1.3-8 1.2-1.7 6 4.8 6 1 2 1.9 1.9 6 1.7 14 8.1 8 4.3 2.2 10-2 16 .4 8-6.4 8-4.8 8-1 12-6.3 14-2.8.6 2.7-1.7 4-6.9 7.3-4 8.7-8 11.6-8 7.2-.6 3.2 2.6 5.8 4 4.2 8 4.9 6 5.6 8 2.4 1.2 1.1 2 6 1.8 2 9.3 4 2.7 4 1.7 6 5.3 6 4 .7 6.2-.7 1.8 1.9.1 2.1-2.1 6 .5 2 10.8 6 2.7 7.1 2-2.2 2.9-8.9 3.5-4 2.9-6 8.7-8 .9 2-.6 4-3.8 10 1 6 4 12 8.5 7.7 18 9.5 4-.8 4-3.1 8-4.2 2.1.9 3.9 4.2 2-.5 2-2.4 1.3-7.3 4.7-.3 4-1.3 4-4.2 2.6-14.2 2.2-4 5.2-4 4-7.7 1.1-4.3-.6-8 1-4 4.5-5.9 8.8-4.1 4.8-10 1.8-10 3.8-12-2.6-12 1.4-2.5 4-1.3 2 1.1 2.6 8.7 2.1 14-.5 4-2.5 6 3.5 8 .1 4-4.9 10-7.9 12-.7 14-2.4 6-5.2 8-1.1 4-.3 6 1.4 8 3.8 2.9 10 2.1 12-5.6 2 .9 4 5.9 2 1.4 2-.1 2-2.2 3-7.3 5.9-10 5.1-4.3 6-6.9 2-.7 3.2 11.9-.8 4-3.2 6-3 12-4 8-5.3 6-1.9 8-5 2.9-6.9 1.1-1.8 2-.6 6 1.3 3.8 10 5.1 8 6.5 4 1.8 2-.4 6-8.8 7.8-2 6.2-4.8 8.7.8 2.4-2 2.9-7.9 2-.9 4 .8 3.1 4 2.1 8-1.3 4-5.9 7.2-4 11.5 4-.4 3.5 1.7 6.2 10 2.3 1.9 14 3.2 4-.8 2-1.5 2.4-8.8-3.9-12 .6-10-4-6-.8-4 1.2-6 .8-14-1.2-8 2.9-8.5 2-1.5 9.5 14 2.8 10-.4 16 3.7 2 11.1 2 2.4 2 2.9 4.9 2 .4 1.7-1.3.5-4 1.8-1.4 6.2-2.6 2.6-8 3.2-3.9 12-6.9 4 0 2 1.8 2 4.1.8 6.9-4.5 12-1 8-8 10 1.4 10-2.8 4-7.9 7.6-6 3.1-2.2 3.3 4.5 4 11.7 3.2 6-1.3 2 .4 3.7 3.7 4.3 7.1 2-.1 1.8-3 2.2-1 2.7 1 1.2 2-2.6 4 2.1 4 2.6 2 1.1-2-.4-6 6.5-6 1.4-4-6.9-10 .7-12 1.6-1.2 2 .7 6 4.8 7 1.7 1.4 2 .1 2-4.4 16 .7 14 4.1 10 1.3 8 7.8 13 2 .2 6.6-3.2 1.7-2 1.3-6 .3-10-3-10-.1-12-4.3-8 .2-2 1.7-2 3.6-1.8 2 .6 2 2.2 6 17 2 .5 6-1.1 6 1.8 2-.5 1.3-2.7-8.5-18-9.5-8-3-8-3.5-4-.5-2 1.7-3.7 4-2.6 4.4 2.3 7.6.7 4 3.3 4 1.8 6 0 2-1.9 1-13.9 3.9-8 .6-4-5.5-8-2-1-4 .8-4-2.6-2.5-5.2.5-2 2-1.6 6-.5 8-2.9 6 .2 4 1.4 2 2 2 9.6 10 21.7 6-9 4-.6 2.5 1.7 5.1 12 12.4 6.2 16-8.5 2-.4 8 1.9 8-.1 1.3-1.1-1.6-6-3.7-4-2-1.3-10 .1-2-2-.7-2.8.7-2.6 2-1.4 4 0 4 2 2.4 0 1.1-2-1.3-8 1.8-4.7 2-.7 4 6.2 9.7 7.2-3.7 3.3-.6 2.7.4 2 2.2 2.6 2-.7 1-1.9.4-2-1.2-6 3.8-1.4 3.4 1.4 6.6 7.8 9.6 4.2-.7 6 1 12 2.1-.3 4-2.7 2 .1 1.1 4.9-1.1 3.8-6 .6-2 1.1-3.2 6.5 0 4 1.2 1.3 6 1.4 6-1.5 4-4.2 6-2.2 5.6-4.8 4.4-5.4 6 .7 5.1-3.3 6.9-1.2 4.7-8.8 1.6-10 11.1-14 3.1-6 3.5-2.1 3.6 2.1.9 2 1.5 8-1.2 8 3.2 6 1.6 10 2.7 4 5.7 4.2 2-.5 1.3-5.7-.8-10 1.5-2.8 4-2 2 .6 2 2.2 1.8 8 1.7 2 4.5 2.7 8 2.6 6 5 2-.4 10-5.9 3.4-6 4.6-4.2 2-1.3 6-.7 1.3-1.8-.7-6 1.4-4.9 17.2-11.1 4.8-7.4 4-3.5 6-3.3 6-8.6 0 3.8-2 6.1-6 4.4-6 8.8-3 7.7-5.2 4-1.2 2 .6 10-10.3 10-.9 4.3-3.3 5.7-3.9 10 .6 8-9.4 3.1-2.9 2.9-5.9 12 .9 6-1 2-9.1 2-1.6 2-2.6 16 .9 4 5.3 8-2.8 6 .2 4 .6 1.3 3.9 2.7 0 2-4.9 8 1 5.2 2 1.2 12 2.7 6.7-1.1 4.6-2 .9-2-1.1-6 .9-4 10.1-12 1.9-9.5 2-1.2 5.7 8.7-.7 4-6.4 12-.3 2 1.7 3.3 12 2.2 4-.9 1.6-2.6.9-10 1.5-2.1 2 .2 5 5.9 3 11.7 3.3 2.3 2.9 0 1.8-3.1.1-8.9-5.5-12-2.6-26 1.2-10 2.8-3.7 1.7 3.7.2 10 4.1 18.5 1.7 3.5 2.3-.5 4-7 2-1.2 2.9.7.2 4-3.3 14 .2 4.7 2 2.1 2.9-6.8 3.1-2.9 4-1.6.7 2.5-2 8 3.3 6.9 4 5.3 4 1.9 4-7.2 2-1.7 2 .9 4 9.5 2 2.2 6 4.4 6 1.1 2-1 .9-2.3-.3-4-2.2-4-.6-6 2.5-8-.2-2-2.1-4.1-7.7-9.9-.8-6 4.4-16 1.7-10 .4-.8 2 .3 2.3 4.5.7 4-1.4 10 .1 8 4.3 5.4 4 1.5 3.3-16.9-.3-10 2.3-10 2.7-6.3 1.5 2.3 1.6 14 2.4 4-1.5 18.1 2 2.4 8-2.7 2.1.2 1.8 2-.5 2-3 4-10.6 10-.8 2 2.6 6-4.6 6 1 8.3 2 .7 9-3 7-5.9 4.1-2.1 5.9-6.8 2 .2 4 2.9 10 2.8.4 2.9-2.4 2.2-8 .4-3 1.4-7.8 6-9.9 10 .7 1 12-.2 9-2.8 2.4-2 2.8-6 3.8-3.9 2 .2 12 8.5 4 5.1 2 .9 16 .2 2-1.3.5-3.7-6.7-8-.6-2 .8-2 5.6-4-.7-2-14.9-11.4-14.8-16.6-5.2-10.4-2-1.9-4.1-1.7-1.5-2 .6-4 3.5-6 .1-8-1.1-4-2.3-2-5.2-1.5-8 2-2-1.3 3.3-11.2.7-1 6-1.5 2-1.5 2-4 .5-4-.5-4-2-3.8-7.8-6.2-.2-10-6.8-22 .2-2 2.6 1.2 3.7 6.8 11.6 14 3.7 8 7.1 8 3.4 8 2.5 1.5 5 .5-1.3 4-3.7 4.1-1.1 3.9 5.8 20-1.1 8 6.4 11.8 6 5.3 2 .3 1.6-1.4 1.9-6-.9-8 .5-6 2.9-3.4 2-.1 3.3 3.5 6 12 .7 14 .9 2 3.1 2.7 4 1.4 2-2.2-3.2-7.9-2.3-12 1.1-20-1.6-2.2-5.2-3.8-1.1-2 .3-2 6-3.8.5-2.2-7.1-14-3.4-2.9-6.3-3.1 1.1-2 5.2-3.9.6-2.1-1.5-6-5.9-14 .8-1.2 2 1 12 10.4 2 .6 1.9-.8 1.2-4-1.3-8 1-4 2.8-4 6.4-3.4-1.2 9.4 3.6 10 .4 4-1.6 16 .8 2.6 3.2 3.4-.5 6 2.1 6 1.3 10 1.1 12-1.3 12 1.3 10 4.5 10 2 2 6.3 2.7 6-.3 2.1 1.6-1 4-3.1 3.4-6 3.5-8 1.5-7.4 9.6-1 2-.1 12 .5 1.3 2 .7 4-1 4 .9 3.1 4.1.9 6 3.1 2 2.9.2 2.4-2.2 1.8-14 1.8-3.6 2 .5 6 15.9 2 1.5 3.7-.3 4.4-2 3.9-5.3 2-1.3 2-.2 8 2.7 4-.4 3.1-1.5-1-2-10.4-10-10.1-20 1-4 4.1-4 0-2-3.5-6 .8-2 4-3 .1-3-8.9-10-7.2-10.6-2-1.1-4.3-.3-1.4-2 2-8-6.1-10 .4-8-3.4-18 2.2-8 0-10 3.2-10 3.4-2.6 2-.5.7 1.1-.7 12 4.1 12 3.6 20 2.3 1.3 10-3.9 2-.2.4.8-3.7 8-3 10 .2 4 2.1 6.6 2 .6 8-9.5 4-1.2.6 3.5-1.5 10 .9 2.5 4 1.5.3 4-1.5 6 1.2 3.5 2 1.3 4 .1 4-2.9 2.4-4 4.5-14 2.7-18-.8-6 1.2-2.3 2-.4 2 .9 2.6 7.8-.8 8 1.2 12-1 8 .8 2 3.2 1.2 2-.3 2-2.1 2-4.8 2-.6 4 2 1.8 2.6-.7 8 3.2 6-.7 2-3.6 1.5-12-2.1-4.8.6-4.4 2-7.4 6-3.4 7.3-6 4.4-.5 6.3 2.5 5.5 4 2.9 12-2.2 7.5-.2 2.5-1.6 4-4.8 2-.6 6 2.5 10-4.1 6-.4 8-4.7 2.8-8.3 5.2-3.3 3-4.7 5.6-4 2.1-4-.3-4-2.4-3.7-6-1.3-4-2-8-10.8-7.6-6.2-.9-2 4.5-.2 6 1.8 10 8.3 2 .1 2-2.4.3-7.6-1.3-4-3-3.2-7.1-4.8 1-2 7.4-2 1.7-2-1.6-4-7.4-12-1.4-4-2.1-18 .5-8 3 .8 2 2.2 4.2 9 1.8 8 3.6 6 6.4 7 2 .6 2-1.1.3-4.5-2.1-6 1.1-4 .7-.6 2 1.9 4 5.2 2 1.5 2.4 0 3.6-6.5 20.6-21.5 3.4-8.3 7.3-7.7 4.6-10 .5-6-1.2-8 1.6-4 6-4 5.2-5.4 10-2.7 8-6.8 6-2.4 6-.8M1446 231.8l-6-3.8-11.1-14-8.9-3.2-6-6.2-9.3-4.6-14.7-1.3-1.5-.7-.6-2 3-6 4.4-4 1.4-4 .5-6-3.1-8 3.9 0 1.4 2-.4 4 1 2 14 10.8 2 .2 4-3.4 1.2-3.6-2.1-10-1.1-2.3-5-3.7-.4-2 3.4-2.5 3.8-9.5 5-8 13.9-10 .2-4-2.9-5.4-2-1.4-10-1.3-4 1.2-6 4.3-2-.3-12-7.8-10-8.7-10-5.9-11.8-2.7-.1-2 5.9-3.1 8-7.3.3-3.6-1.5-4-2.8-2.9-5.7-1.1-.6-2 2.3-1.8 6-1.6 2-1.5 1.3-3.1-.8-4-4.5-4.7-7.8-3.3 9.8-6.7 2 .2 2.6 2.5 5.4 2.3 1.1 1.7 3.6 22 9.3 17.2 2 .5 2-3.3-.6-6.4 2-6-2.2-6-1.1-8 1.9-1.8 4 5.1 2.7 8.7 8.8 16 4.5 3.9 4-1.5 1.6-2.4 4-14-.7-6 9.1-3.4M225.3 204l1.4 0 1.3 2-.2 2-3.8 4.2-2 .6 0-5.6 2-2.8 1.3-.4M1446 251l-9.2-7 1.2-2.3 8-2.4M800.7 380l3.3-1.4 4 1.2 4.1 10.2-2.1 5.6-1.4 8.4-2.6 3.1-2 .4-4.1-1.5-.8-2 .2-20 1.4-4M655.5 404l4.5-1.4 2.8 3.4 2.1 12-.7 2-2.2 1.6-6 .3-4-.9-4-4.1-2.1-.9.2-2 3.9-1.9 5.5-8.1M749.6 428l2.4-.8 8 4 8 2.6 4.4 4.2-.4 4.8-12.1 9.2-3.9 7.7-2-.3-2-5.4-.5-6 2-10-4.8-6-.5-2 1.4-2M846.4 432l3.6-1.6 2 1.6 1.8 6-.2 4-1.6 8.1-5.5 5.9 2.4 6-.2 4-8.8 14-1.4 6-2.5 3.9-4 1.3-4-.3-4.1-2.9-1.4-4 2.5-6 .2-2-1.2-.6-18-1.9-8 3.2-2 0-2-1.3-1.8-5.4 1.8-3 4-2.3 4 .6 6 3.5 4 .8 6-1.1 6-4 2 .9 1.8 2.6-2 6 2.2.1.2-6.1 5.8-5.2 4.8-2.8 3.1-4-2.9-4 .7-10 2.1-6 4.6-4M701.1 446l2.9-.8 2.6.8 2.7 8-2 2-5.3.9-2-2.1-.3-6.8 1.4-2M715.4 446l.6-.5 2 1.7 1.5 6.8-1.5 2.3-4 1.3-2.5-1.6.1-2 3.8-8M637.8 518l3.6 2 1.2 4 1.4 1.4 6 3.7.2 2.9-2.2 2.7-2 .6-6.9-1.3-3.3-2-1.2-2-1-4 .2-4 2.2-3.3 1.8-.7M1013.6 534l.4-1.7 4.3 11.7-.3 3.1-2 .5-2.2-3.6-.2-10M138.1-4l-.1 4.9-5.2 7.1-2.7 2-14.1 0-4.4 2-.8 2 2.7 8 2.7 4 9.1 6 3.9 4 6.7 22-.8 4-3.3 6-4.5 4-7.3 3.4-8.7 8.6-.9 2 0 4 2.9 10-.6 20 1.4 4 3.9 4.2 18 8 8 1.4 4 2.3 3.4 4.1 4.3 10 8.3 4.8 2 .1 1.2-.9 2.8-5.9 2-1.2 4 .5 6 3.7 6 2.1 6-.8 6 1.1 3.8-1.5 4.2-6 2 0 2.4 4 .2 8 5.4 6.8 4 1.6 8-.4 10 3 2-1.2 2.9-7.8.2-4-1.6-8 .5-3.6 4-3.7 4-5.8 10-6.5 10-11.8 10.2-6.6 5.8-5 6-3 6-1.1 4.1-2.9 1.4-4-.9-2-10.6-5.3-2-4.5.1-4.2 1.9-1.8 4-1.5 12-1.8 2-1.1 8.9-9.8.6-4-.4-8 3-4 3.9-.7 6 1.2 2.7 3.5 3.3 2 6-7.4 4-.2 1.8-4.4-1.3-12 3.5-20 2-4.3 4-4.1 4-2.4 4.9-1.2.6-4M1349.7-4l0 4-1.7 1.5-14 .3-3.8 2.2-1.3 2 0 4 5.2 6 1.6 4-7.2 18-3.6 16-.1 12 2.8 12 2.4 7.4 4.7 6.6 3.1 18 1.2 2 9 3.3 8-.5 8 2.7 6-.8 6 1.1 8.2 6.2.8 2-13 7.4-2.4 2.6-1.6 4-2 1-8 .6-3.1-1.6-4.9-5-2 0-.8 1-2 12 .5 2 8.3 2.6 3.6 3.4-1.3 2-6.3 3.1-1.5 2.9 1.5 2.3 8.5 3.7-1.9 8-.8 2-4.2 4-1.6 9.1-8 14.1-7.3 6.8-8.7 5.2-8 7.5-8 1.9-10 .5-11.8 4.9-8.2 4.9-2 0-5.9-10.9-6.1-7.2-2.5-.8-.9 2 2.8 8-1.4 12.6-2 2.2-4 2-10 .6-3.3 4.6-2.7 13.8-8 7-10 2.9-6-.1-8-1.7-8 .3-4-1.3-8-5.5-20-7.2-10-12-4-1.5-2 .5-2 2.1-3.4 8.7-4.6 2.3-5.8 5.7-4.2 1.7-6-.5-12-5.5-12 1.8-14-3.7-14 3.4-8-.4-4 1-16 7.9-12 4.6-2-2.6-1.1-7.7-3.5-8-1.1-8-2.8-2 1-10-5.6-14 .2-2 2.7-4 3.1-20 5.1-4.4 9.3-1.6 2.5-2 .4-2-2.2-1.6-10 1.7-8-4.5-6-1.5-4 6.3-4 .2-.9 1.4.9 6-1.3 12-3.7 18 1 6 0 8 3 8 1.3 10-1.1 10 .1 8-1.3 2.4-2 1.3-14-.1-2-.5-4-3.2-4-.7-20 4.9-18 7.1-14-1.8-6 1-6-2.1-4 1.1-6-.6-6 .8-10-4.3-4 .5-6 3.7-4-.1-13.2-9.4-2.8-3.1-4.8-14.9-8.2-16-1-11.6-4-5.5-2-1.5-2-.1-1.1 2.7.9 4-1.3 10 .6 8-1.1 3.9-2 1.6-2-.5-6.6-5-11.4-14.4-2-.5-.6.9-1.7 10 4.3 4.8 1.1 5.2-4.7 14 .8 4 6.8 1.9 6 5 6.8 1.1 2.6 2 4.8 12-.2 4.2-2 4.2-4 3.6-14 8.9-18 8.8-8 6.9-14 .9-8 2.1-12 .4-8 1.7-4-.8-2.8-2.9-2.1-8 .5-4-1.6-1.6-2 .6-6 5.7-8 3.2-4 .1-6-3.6-2.8-4.4.2-12-1.4-2.6-2-.3-8 11.9-2 .3-6-2.6-4 1.6-4 3.7-8 1.3-3.7-1.3-4.3-3.3-4 .1-8-2.6-2.8 1.8-1.1 6-1.2 2-2.9.9-1-.9-1.1-4 .3-8-2.4-8 2.2-3.8 6.9-6.2 5.1-7.3 5.4-12.7 1.6-6-5-2.4-2-.5-2 .8-10 11.9-2 1.6-2 0-1-3.4.5-8-1.6-10 1.5-6 6.2-14 .1-2-1.7-1.3-6 2.7-4 .7-8-2.2-2 .3-2 4.4.1 3.4 4 4 1.5 6-.5 4-3 8-1 8-4.9 16 .1 14 1.2 4 3.4 4 3.1 6.5 2 7.5-2 2.8-4-.9-6-3.6-6-8.3-2-1.4-12-1.7-2-1.8-4-7.9-10-9.2-4-2.3-4 .7-4-4.1-4-2.1-4-3.7-4-7-2.8-21.5-1.2-3.6-2-1.5-2 0-2 1.9-.4 11.2-4.4 6-1.7 4 1.6 10-3.1 7.9-4 3.1-4-.2-6 2.6-5 .6.3 4-1.1 4-2.2 4.8-2 1.5-10-3.7-4 .6-8 3.2-6-5.1-6-3.5-8 .3-4-1.5-2.8-16.6 2.3-14 6.3-12 .1-2-1.9-1.5-6-.4-6 5.5-6.6 8.4-6.6 6-4.8 11.1-6 5.4-3.4-6.5-1.5-6-.4-4 1.2-6-1.9-2.3-8-1.9-2-1.4-6-6.8-.9-3.6 1.6-8-1.9-10 1-18 2.2-5 5.2-5 4.8-6.4 8-4.3 11.3-3.3 6.6-4 26-24 8.1-5.3 10 0 10-3 8-6.6 2.8-7.1 5.2-5.9 2-1 6 2.8 2-.7 5.2-3.2 2.8-5.2 8-2.3 10-8.2 4-.8 2 2.2 2 0 6-2.4 2 .2 6 4.5 8 2.1 5.8-2.1.1-2-7.7-10 0-2 2.5-2 5.3-2 2.5-2 .4-2-3.4-6 .8-8-3.9-18 5.4-12 6.8-6 2.2-6-.8-2.1-12 9.4-5.9 2.7-6.1 6.3-4 6.1-6 6.2-4 7-7.6 8.4-1.1 2-1.3 8-1.4 2-12.5 10-4.6 6-5.5 3-8 .9-10 3.6-10 7.8-2 0-4.5-3.3-1.5-1.6-.3-2.4 10.5-12 1.8-8 3.2-8 7.4-8 .9-6-1.5-4.4-6 2.5-6.1 5.9-1.9 2.6-6.8 19.4-3.2 3.1-6 3.5-6-.3-12-7.1-9.5-9.2-2.5-4.3-1.9 4.3 2 8 2.1 4 3.8 3.9 6 2.2 12.2 9.9-.1 6-3 8-3.9 4-9.2 5.3-8 1.4-16 4.7-6-.9-2.4-2.5-1.6-3.6-2 1-1.3 12.6-4.1 6-2.7 6-7.9 10.3-16 13.2-10 2.3-8 3-4 2.5-2 2.5-.3 4.2 6.6 18-3.5 14 .1 8-.9 3.2-2 1.3-10 .5-6-3.1-4-.2-.7 2.3.7 1.2 5.6 4.8.6 2-1.4 2-4.8 1.1-6 5.5-3.9-.6-1.3-2-.8-9-2-4.4-6 .1-2-2.1 2-2.8 6 1.2 2.6-5-1.3-4-9.3-11.7-2-1.3-4 0-10 5.7-2-.9-1.2-1.8 5.2-10.6-.2-3.4-1.8-1.8-4 0-10.4 3.8-5.6 3.2-8 6.6-4 1.9-2-.2-2-1.7-6.7-7.8-3.3-1-1.8 3-.1 2 .9 2 3.8 2 1.4 2-1.1 2-3.1.9-1.8-.9-1.9-4-8.3-4-6-6-6 .1 2.2-8.1 1.6-2 19.7-6 10.5-12.5 2.2-3.5 9.1-26 .9-10 5.2-14 6.6-6.9 18-10.2 1.2-2.9.8-8.7 2-2.5 5.4-2.8 1.2-2 .8-4-1.6-6 2.3-6 3.9-3.4 8-4.4 6 1.9 2-2.6 5.3-15.5 4.7-2.1 1.9-1.9 0-4-4.4-6-.1-10 4.6-7.3 4.3-12.7.2-4-2.1-4 .1-2 1.5-4 2-2 4-2.1 6.6-5.9M1011.6 144l2.4 1.8.2 2.2-3.1 10-.3 4 2 8 3.9 8-.7 3.8-6.5-1.8-1.1-8-3-6 .6-8.8 4-11.2 1.6-2M849 158l1-.7.4.7 2.2 8-.1 4-1.3 4-1.2 2.6-5 5.4-.7 10-.9 2-3.4 2.4-4-.3-4.4-4.1-1.7-6 .1-3.1 6-.3 5.8-2.6 2.2-2.1 2.7-5.9-.4-8 1.7-5.4 1-.6M589 184l1-.6 3.6.6 2.4 2 0 6.1-2 2.5-2-.6-1.5-2-1.5-8M596 220l2 1.9.5 2.1.2 8-.8 4-3.6 8-3 14-.6 8-2.7 2.6-5.2 1.4-4.8 7.9-2 .1-2.1-4 1.8-4 4.3-4 .8-2 1-14 3.4-8 .2-10 10.6-12M539.8 306l2.2-1.2 2 .2 1.9 3-.8 4-3.1 3.6-2-.1-1.8-3.5 1.6-6M216.3-4l0 4 1.8 4 9.6 10 2.5 4 .3 4-1.8 2-2.7.6-8-1.2-12 5.6-12-4-10-5.8-10-1.3-4 1.5-5.1 4.6-1.7 2 .3 4 2.5 3 10 4.4 2 .4 6-2.3 2 .6 2.3 3.9 2.4 10 7.3 4.4 8 7.8 2-.9 2-3.4 2-.4 6 6.7 2 1.6 2 0 6-6.8 8-.3 5.3 1.3 2.7 8 10 10.1 4 2.5 4-1.6.9-3-7.1-10 .4-2 9.8-9.3 4-1.9 2 .7 2 2.3 4 6.9 2 1.5 4 .1 2-1.7 4.8-8.6 7.4-6 3.8-4.5 6-4 4-5.5 2-1.7 6-1.7 2-1.5 6-9 4-4.1 13.4-20M442.9-4l2 4-.9 8 6.9 8 4.8 18-.6 4-5.7 12-.3 4 2.6 6-.5 2-3.5 4 1 8-1.5 8-4.5 6-1.9 8-2.8 2.4-4-.4-2.6-8 .6-2.5 4.7-5.5.3-2-1-1.9-3.1-2.1-.8-2 5.5-10 3-10 1.4-22.3-2-.6-5.4 2.9-2.4 12-3.1 6-1.1 1-6-3.3-1.9 2.3-1.3 6-.2 10-2.6 3.8-2-.5-2-2.6-2-10.2-2-1.3-2 .2-3.4 2.6-5 8-.1 2 4.1 6 .9 6 7.5 5.8 2 4.2-1.3 10 3.3 5.6 2.2 8.4-2.6 8 .3 2 4.9 6-.8 3.3-4 1.3-4-2.3-5-6.3.1-4 2.7-10-.3-4-1.9-4-1.6-1.8-2-.3-4.6 4.1-3.4 1.2-2-.6-2-2.3-1.2-4.3.3-2 4.2-8-1.6-4-3.7-2.5-10-.8-1.6 1.3-4.4 12-2 10.8-3.6 5.2-4.2 4-4.2 3-4 1.6-4-2.1-.9-2.5 1.4-4 5.5-4.3 7.5-9.7 6.5-12.5 8.6-11.5 5.4-12.6 16-15.2 8.6-4.2 8.2-14 4.7-12 4.4-6-3.9-.7-4 2.3-5.8 10.4-4.2 4.5-14 3.3-2-1-1.6-4.8 1.6-12 2-3.1 6-5 6.5-9.9M476-4l1.5 6 4 4 .1 2-3.3 6 .3 2 4.2 6-2.8 10-.1 6-2.8 4-.3 2 1.2 2.6 6 4.8 1.8 2.6 1.4 10 2.8 2.4 2-.7 5-11.7-.9-6 1.9-10-3.1-8-.3-4 1.4-2.2 6.1-1.8 2-4-.1-8-6.2-14M530.8-4l0 6 4.3 12 2.9 3.1 2 .1 5.6-5.2 10.1-16M631.3-4l-4.4 6-1.1 4 .3 2 1.9 2 2 .3 6-1.4 5.7-4.9 6.3-3.7 3.4-4.3M1063.9-4l-4.3 12-1.3 8-6.4 10-.7 4 1.5 6-.4 2-4.3 4.7-8 6.7-2 .6-4 0-3.4-6-2.7-2-3.9-.1-8 3.4-4-.2-1.7-1.1-.6-6-4.5-10-2-10-6.6-6-4.6-6.4-2-.5-.6 2.9 2.6 9.1 4.4 6.9 3.2 8-.5 12 1.2 16 5.7 5.4 1.8 4.6-1.8 11.1-4 5.3-2 .2-2-1.2-8.6-7.4-11.4-18.1-4.6-9.9-4.9-6-4.5-4.2-10-2.6-4.4-7.2-1.6 2 0 2 2 4.6 2.3 3.4 7.9 6 4.4 6 2 20 1.8 6 3.6 4.6 8 4.9 10 14.3.2 4.2-1.7 6-.3 6-2.2 2.2-2-.3-6-5.4-2 .4-6 4.5-2-.8-1.7-2.6-1.9-8-4.4-5.9-8 2.5-12-6.5-1.8 1.9 1.1 12-1.7 8 1.2 8-.4 4-6.4 6.2-8 2.3-2.1-.5-3.1-8-2.8-2.1-2 .4-4 4.1-4 .5-10-5.2-8-2.8-6-6.2-1.4-4.7 1.5-4 2.7-20 11.2-16 1.5-4-.3-4-1.2-1.6-2 .7-6 5.1-6 2.3-4-.3-4.6-2.2-1.4-2-2.3-8-1.7-1.2-6-.3-5.8-6.5-5.3-20-.9-11.7-2-1-3.2 4.7-2 8-.9 12-3.4 4-6.5 4.3-1.8 3.7.7 8-.7 8 8.9 12-.3 8-4.8 6.6-8.5 5.4-3.1 6 .6 6-1 3.1-4 4.6-6 4-2-.2-10-4.9-3-6.6-3-4-2.5-10-3.8-6-1.7-4.8-8-10.2-1.5 1-.2 4 3.7 22-.7 4-3.3 2.1-10-3.9-5.4-.2-2.6.8-1.1 1.2.4 2 3.3 6 .5 6-1.1 6-2 1-14 0-2-1.4-5-11.6-8.2-8-2.2-8-2.6-.6-4 .9-4-2.1-5.6-18.2-4.3-4-4.1-6.5-4-3.2-.2 3.7 3.3 12-1.1 2.5-3.6 1.5-1.4 2 4.5 6 .6 6 4.6 8-.2 4-2.5-.9-5.4-7.1-2.6-1.7-8 .4-8 2.9-4-.5-4-1.7-8-7.5-6.2-7.9-9.2-22-2.9-10-3.9-8 .2-1.3 2-.4 15.5 5.7 10.5 15.5.8-1.5-1.1-16 1-4 3.8-6 .3-2-.9-2-5.9-2-2-1.6-3.8-6.4-.2-2 1.6-4 .2-8 2.2-14 6.1-10M1068.8-4l-.4 12-3.4 10 .2 8-3.7 14-3.5 7-8.5 9-1.9 4 .3 4 4.2 8-.7 8 1.6 4 4.3 4 1.9 4 2.2 16 1.7 4 2.9.9 12-1.1 8-1.9 12 .7 4 2.6 4.4 4.8-10.4 4.4-2 2.3-1 3.3 1.7 2 7.3.6 6.1-.6 10.1-4 2.1-2 .1-6 5.6-3.8 4-1.4 3.5 1.2.6 10 1.9 2 2 .5 4.7-.5 1.3-1.3.5-2.7-.4-8-3.5-4-.3-2 1.7-7.7 2-4.5 8.3 4.2.9 2-.3 4 1.9 4 5.2 6.2 10 6.5 8 2 14-3.4 3.3-3.3 1.2-4-3.5-10 .1-6 .9-1.2 10 3 10-1.7 6 1.7 2-.3 2-2.3 4-11.9 1.2-15.3-1.6-6-7.6-8 8-1.4 7.6 11.4 1.1 6-.6 6 3.5 10 .1 4-1.5 6 3.8 4.6 2 .1 3-2.7 1.9-8 1.7-2 7.4-2.2 8 1.2 6-.5 10-7.7 8-1.3 6-2.3 2-2.2 2.2-5-.2-10 3.8-2 .8-2-.8-18-2.4-8 1-6-.5-6 1.4-4 5.6-8 2.7-10M493.2 74l.8-.2 2 1.9.2 2.3-3.5 12-4.7 6.1-5-.1-2.1-2 .6-2 6.8-8 2.2-4 .8-4 1.9-2M631.7 132l8.3-.8 6 .8 3.3 2 4.7 5.6 8-3.3 4 0 10 3.7 20.8 10 1.4 2-3.5 8-.3 6 1.6 2.8 7.9 3.2 1.2 2-3.1 5-.2 3 2.8 6-1.3 4 .5 2 4.2 3.6 1.1 2.4.3 4-1.3 2-4.1.8-3.5-.8-2.8-10-3.7-1.6-10-1.2-6-7.4-4-.2-4 5.5-6-6.4-3.4-6.7.4-12 1.1-4 5.2-8-1.3-2.8-6-2.7-4-.6-4 4.7-6 1.6-11.7 7.8-1.8 4-.4 10 1.9 1.6 6 2 1.3 2.4-.1 2-1.2 2.2-8.6-4.2-5.4-6-3.4-8 3.7-8-1.1-10 2.2-6 .5-6 1.7-4 2.1-2M603.2 138l6.8-.8 3.6.8-1.6 7.5-4 8.2-6 6.8-6 3.6-.9-2.1.1-8 1.3-8-2.4-4 2.8-2 6.3-2M570.9 140l10.8 0 1.8 2-.9 2-4.6 5.9-8.8 4.1-8 6-5.1 12 .8 4 3.2 4 2.2 6 1.7 1.2 6-1.8 1.5.6.9 4 8.7 8 .5 2-1.6 5.4-4 4.9-2 1.2-4-.2-3.6-3.3.1-6 3.2-6-7.7-5.8-8 1.6-2-1.6-4-6.2-4-2.1-4-.6-2.5.7-5.5 6.1-2-1.3-1.2-4.8-2.8-1.2-10 2.6-18 1.4-8-1.4-.9-1.4 2.9-4.5 2-1.4 8-.4 14-2.8 6-2.3 10-6.6 18-7 6.1-5 3.9-6.9 6-3.5 4.9-1.6M642 194l0-.6 2 .7 4 3.9-.3 2-1.7 1.5-2-.2-.8-1.3-1.2-6M755.5-4l4.9 8 2.6 2 3 .8 2 0 .7-2.8-3-8M780.8-4l3.2 5.3 2 1.7 6.4 3 5.6.8 4-.5 2-1.3 3.7-9M863.9-4l.3 6 1.8 2.4 4-1.3 2-2.7 1.2-4.4"/><path class="mk-idx" d="M119.3 320l2.7-.6 12.3 6.6 1.5 2-1.8 8 1.1 6-1.5 2-1.6.7-6-2.5-8.3-.2-3.7-3.5-5.6-2.5-2.4-6-4.1-2-1.4-2 1.1-2 4.4-3.1 2 1.1 2 2.9 2 1 2-.2 2.6-1.7 2.7-4M-4 351.4l6 .9 2 2.1 2.3-.4-4.3-6.7-3.6-9.3.8-4 2.8-1.9 4 .9 3.6 5 2.4 5.4 2 .8 2.7-2.2 1.3-9.2 2-1.2 4 1.9 1.7 4.5-1.1 10-2.1 6 1.5.9 4-3.6 3.6-1.3 3.5-4 3.5-8 0-4 7.4-8.2 4-1.8 2-2.3 2-.6 5.2.9 26.8 38.4 24.4 29.6 23.6 23.1 14 11.2 16 10.6 2 3.6 1.4-8.5 4.9-6-.1-8-3.5-6-.7-9.2-4-4-3-8.8-6.3-10-.3-2 2.8-4 .8-3 2 .8-1.4 2.2.6 4 8.8 8.3 4 6 8.2 5.7 5.8 10.2 10 6.8 4.1 5-.1 2.8-4 2.6-1.2 2.6 4.8 10-2 6 2 10-2.3 10-1.3 1-4-.6-10-8.4-6-2.5-1.2.5 1.2 2.6 6 3.9 7.5 7.5 1.2 6 1.3 1.8 4 2.3 3.7 3.9 4.3 3 16 6.7.7-1.7-2.7-4.1-6-5.1-2.2-4.8.9-2 3.3-2.3 6 .2 2 1.6 2.3 4.5 1.2 8-.9 4 .6 2 8.8.7 2 .9 1 2.4 3 2.6 4 1.3 8 .4 6 3.5 4 .2 4 4 8 2.9 2-.2 2.3-.7-.7-2-7.6-8-8-3.8-6-11.8-8-.2-2.4-2.2.4-6.6 2-1.7 4 .9 6 6 8 1.1 6.7 4.3 7.3 8.3 3.2 5.7 4.8 5.1 2.9 4.9.9 4-3.4 4 9.6 4 4-2.3 8-.8 6-2.8 14-.6 2.8-1.5 7.1-8 6.9-2 1.5-2-5.3-4 1.3-10-1.2-8 .9-1.7 4-.8 8 10.5 6 1.6 6-1.8 1.9 2.2.7 4 5.8 6 1.3 4-1.7 2.9-4 .8-2-.6-1.8.9 1.8 1.9 4 2.1 6 6.2 2 .3.5-.5-1.7-4 1.2-3.5 2-.7 3 2.2 3.5 10-.5 4-2 .7-.4 1.3 2.4 8.9 1.4-.9 2.6-6.5 2-.4 4 3.5 4 9.4-.1 4-2.8 4 .7 2 8.2 9.7 6 .8 4 4.5 2 0 7.8-1 2.2-3.2 8 .1 6-3.4 10-.1 6-1.1 2 .8 1.7 2.9-.2 2-1.5 1.4-6-3-2 .2-3.8 3.4 3.8 2.4 8-1.8 2.3 3.4 7.9 4 3.8 5.7 8 2.5 2-.7 2.5-7.5-.2-4 1-2 2.7-.3 3.8 2.3 7.1 12-.1 4-2.8 6.6-4 0-2-1.5-2 0-.4.9 4.4 5 2.7 5 1.3.9 6-.4 3.1 3.5 3.6 2 2.6 4 .7 4.2 2 2.7 6-.1 2.1-4.8 1.9-1 2 .4 3.4 6.6 4.6 3.6 4.7 6.4 1.1 6-1.8 2.5-4-.2-.1 1.7 2.1 3.4 2 1.1 1.4 3.5M365.2 462l.8-1.5 2-.4 2.3 1.9-.1 4-2.2 2-4 1.2-6 3.7-10 .1 0-3.2 10-4.1 4 .1 2-1.2 1.2-2.6M530.4 622l1.6-1.9 4.3 7.9.7 6 3 2-2 .7-2.4-.7-.4-4-3.6-4-1.2-6M899.6 628l8.4-.4 1.5 4.4.1 8-1.6.8-12-5.4-.4-3.4 4-4"/><path class="mk-trail" d="M864.9 596.9l-.1 2.5-3 3.7 2.8 2.8-2.3 8.1-.4 10.9 6.8 22.7 1.8 1.8 2.9.8 12 2M801.8 647.9l-2.4-4.8-7.1-7.6-2.3-4.4.7-28.9 1-1.3 4.3-1.6-28.3-3.5-5.3 1.2-.8 1 1.5 2.9.4 3.8-4.3 12.8 1.1 2.1 4.6 4 5.4 20.3 2.9 5.5.7 3.6M645.5 651.3l5.4-3.3 1.6-3.7-.6-1.1-2.7-.8-6.9 1-5.2 6-3.2-.5-1.3-1.8-.1-3.9 2.8-4.1-.6-1.1-5.9-2.9-4.3-6.1 1.2-7.4-3.6-1.3-1.5 1-2.6 6.3.7 4 1.5 3.2.6 6.6 5.3 12.8M601.9 651.3l-11.6.3-9.8-3.8-9.3-9.7 0-1.7-2.2 0-10.1-3.8-4.7-3.7-2.8-1.1-1.2-1.5-2-7.5-3.3-5.8-7.5-8.2-7.5-1.9-15.7-9.1-5.4-4.6.2-1.6 3.2-3.3 3.8-6.6 2.2-.9 8.5 4.1 4.8 3.7 2.3.4 7.9-2.2.5-1.1-.8-1.1-5.7-.1-8.5-9.1-1.9-3.4-5.3-4.5-1.4-3.3 1.9-1.5 12.8 1.1 3.5-1.6 9.7-8.7-6.3-4-39.1-21.8-8 19-1.1 4.2-.5 8.4-1.1 2.5-2.8 2.8-1 .2-8.1-3.9-5.6-7.4-7.8-1.4-1.7-7.7-1.4-1.1-1.8 1.1-2.3 6.5-6.2 3.6-7.8 1.2M763.5 604.7l-2.6 3.7-3.4 9.7-7.3 14.3.5 1.2-1.1 1.8-9-6.6-40.8-2.3-33.1-3.2-37.5-5.3-3.2.2-3.2-1.3-15.8.4-33.5-22-10.1-4.4M258.7 264.3l2.8-3.8 8.3-23.4 2.1-2.7 7.8-6.9 5.3-22 2.6-7.3-.6-13.5 4.3-6 2.5-5.4.9-4.2 7.9-7.7-3.4-6.5 1.8-4.6 1.6-8.4 10.1-14.3 1.4-.8.9-2.6 4.4-1.8 1-2 1.7-.6 2-2.8.8-5.8 1.9-2.9.9-4.9 2.6-1.9 4.5-6.3 0-2.3 9-2.6 4.6-4.1 2.3-3.9 2.1-.8.6-5.1 1.7-1.9 4-9.4.1-4.3 4.9-1.6 3-3.1-.9-1.4 1.5-8.4-2.1-4.8.5-5.9 1.1-3.2-1.3-.7.1-2.5 1.2-2.9-2.5-3 .7-.3.9-4.8 1-.9 3.7 0 2.6-2.6 0-3.4 1.8-6.3 3.5-3.2-.9-1 2.7-1.1 5.2-4.5 2.2-.8 1.3.9 1.2-2.3 5-1.6 2.7-2.7-.2-2.8M415.3 498.2l-2.4 1.3-5.2 10.6M600.4 524l-.7 2.4 7.6 6.3-1.1 5.1 1.2 2.2-.3 1.9-1 1-10.5-.8-3.2.5-1.7 2.1-8.3 17.7 1 2.7 3.3 2.1 13.2 5.2 1.3 2.9-.5 2.9-29.5 58.2M572.7 499l5.7 4.3 9.4 4.5 11.2 7.8M591.1 521.7l-6.3-4.9-4.5-2.1-24.2-10.6-15.2-4.8-3.8 1.4-10 12.8-6.3 10.1-3.4 3-.7 2 .6 1.6 8.1 4.4 3.2.7 2.2 2.7 11.1 7 5.9 2.5 29.8 16.9 5.8.7M575.7 566.1l-25.5 50.5-4.9-8.1-6.4-5.2-9-3-18.6-12.5 4.8-8.4 2.6-.7 13.3 8.5 6.3-.5 4.2-1.9 2.2-4.3-9.9-4.8-6.6-7.4-2-3.9 1.5-1.8 6.8-.8 5.1-2.7 6.4-7.8.5-1.8 3.1 2.7 23.7 12.9 30.6 11.3 44.8 4.7 10 3.7.5.8-24.7 48.9 1.2 3.3-.3 4.5 1.4 2 10.9-4.2 4.3.7 3.5 2.6-2.3 5.1-5.6 4.7M770.3 651.2l-5.7-22.8-3.1-5.3-4.2-4.6M492 551l1.1 3.1-.6 5-1.6 2.1-1.2.4-3.1-.8M501.1 523.7l1.8-9.1 9.6-19.1 3-8.4M490.3 561.4l.7.4.2-1M522.9 566.1l-1.2 1.4-2.1.7-.3 1.7-2.8 3-2.8 1.6-2.3.2M525.3 568l1.8-5.8 3-2.4M524.1 536.3l-4.8-1.2-4.1-2.6-1.3-1.8M378.7 451.7l3.4-4.4 12.4-4.2 3-2.3.5-3.2-.4-1.1-3.7-.5-6.3.6-.4.7-4.6-.8-2.3-2.9-1.8-6.6-6.8-2.1.8-3.8 4.7-1.9 2.8.4 2.9 3.1.8 4 .7.5 12.2 1.5 1.9 1.9M410.2 471.3l37.4 22.2-1.4 5.3-2 1.5-2.6.1-6.4-1.9-11.1 1.2-8.8-1.5-8.8-8.1-3.8.3-3 3.1M400.9 433.2l-2.3 3.4-12.7 2.1-2.9-.3-6-2.8-14.3-1.3M665.1 122.5l11.5 2.4 14 4.5 23.1 12.3 4.3.8.9-.7.8-2.6 1.3 0 8.2 3.5 11.1 8.1 16.6 4 10.1 5.1 1.2 0 1.1-1.1-.4-4.7 3.1-6.2 3.9-11.4 2.4-3.9 5.2-4.3 2.3.5.9 3-.3 3.3-3 6.6.8 3.6 1.5 2.3 4.2 2.2 6.3-3.8 1.6-.1 4 2.4 5.2-2.8 1.7-2.3 8.5-19-.5-5.7-2.8-6.9.2-1.3 3.5-3.7.6-2.7-3.8-14.1-4.2-6-2.7-7 2.3-5.3.8-6.7-1.5-15.4.8-6.4-.8-2.6.6-1.2 7.4-.8 1.6-1.8.6-9.2-.7-2.9-6.1-9.4-.6-2.8-2.7-4.4-2.6-6.6-1.2-6.8 11.1-4.6 1.1-2.2M709.6-8.9l-8.3 22.8-18.9 30.2-6.2 23.2.9 10.8-.6 9.2 1.9 3.8 6.8 6.6 1 6.6-1 4.9-4.7 6.3-2.5 1.9-18.3 6.8-4.5-7.3-9.9-6-3.2-5.3-11.1-3.6-6.9-.1-4.2-1.7-1-6.4-4.2-2.2-1.8-4.9.1-3-2.1-1.6-1.1-3.3-5.3-.3-.3 1.1 1.5 3.1.7 3.8-4.1 9 .4 1.9 2.7 2.4-.4 1.7-3.4 2.6-4.2-.4-3.5 2-4.8.5-2.8 3.3-1.8-.5-.8-1.2 2.6-4.9-1.5-.9-6.2 4.2-1.5 2.3.2 2.4 1.7 2.8-1.7.6-7.5-3-2.2.5-2.7 2-7.3 1.7-4.8 5.4-5.2 2.2-6.3 6.4-7.2 4.4-3.2 5.8-5.1 4.3-10.4 12.1-.4.9 1.1.6 13.6-10.9 7.3-1.2 6.7 2.5.4 1.2-1 2-10 6.4-8.5 7.5-1.2 10.5-2-2.2-15.1 4.2-5.4 2.5-7.4-1.7-3.4 3.8-5.3 3.1-25 10.9-1.1 2.8.8 7.1-1.6 13.9-3.9 14.3-12.1 23.6 1.3 8-4.3 15.9-10.9 15.7-1 3.5-.4 5.4 3.9 22-.5 3-6.8 4.5-7.5 6.5-6.2 7.5-3.3 10-8.1 4.6-15.8 1.7-11.6-4.6-4.8-.5-1.6.2-6.5 5.4-2.3 4.4-1.9 4.9 2 9.2 1.5 2.9 2.1 1.1 6.2 7.3 2.9 11 3.1 6.2 1.1 7.4M399.6 440.1l-1-3.5M387.6 436.6l-4.7-1.1-.6-2.2M378.5 427l1.3-.6 3.9.3M324.9 375l-4.2-.7-.5 1.9-4.7 3.4M338.8 384.7l-15.1 17.9M354.6 411.3l-1.6-4.1-5.6-6.3-2.6-4.1-3.9-10.5-6.9-4.3-2.6-.5-6.5-6.5-21.8-7.3M371.4 413.7l.8-11.3-3-8.2.5-1.3 7.3 3.5 10.1 3.2 9.9.8 11.3 2.6 12.7 4.2 4.7-1 2.3-4 .1-1.8 3.1-7.1 7.7-8.8 5.1-17.7 3.2-6.7 7.2-22.6 3.2-1.4 9.5 1.2 5.9-.3 2.7-1.6 2.2-2.8.4-6.6-1.1-11 .6-5 1.9-4.4 13.4-12.8 2.9-.5 5.2-2.6 5.6.3 4.2-2.6 2.2-2.3 1-4.8-1.6-10.3 2-5.9 6.9-10.7 2.8-6.6.8-7.7-1.5-17.9-8.1-23.5.2-5.1 2.4-5.5 8.5-6.1 24.9-14 9.5-9.8 5.6-3.7 11.6-6.1 6.5-5.7 2.9-.9 9.4 1.1 2 1.7 1.4 3.8 1.4 1.5 2.3 1 2.8 0 2.6-1.4 2.2-2.5 1.6-2.8.8-3.9 4-1.7 2.1.4 5.3-1.6 2.3-3.3 5.3-4.6 9.9-1.1 6.8 1.2 4.3-.4 5.6-4-1 2.7 1.3 5.4-1.5 3.5-3.9 3.1-1.1 8 2.5 0 3.5-2.3 2.3-.4 14.7 3.2 2.3 1.6.3 1.5-6.2 1.9-1.6 5.9.4 29.1 1.8 18.7 1.9 7.2 1.7 4 11.6 17.8 7.7 10.2 5.8 5.4 1.8 4.5 9 12.4 7.1 5.9 9.3 5.3 4.3 5.3 8.8 6.9 6.3 2.4 12.7 8.5 15.8 6.5 6.7 1.9 5.6-.3-.2-1.9 1.3-1.9 17.1-11.3 2.9 1 3.8-6.7 5.2-4.1 2.8-.7 4.3.7 3.7 4.4 4.3 1.7 3 7.1 2.6 15.1-2 4-.1 2.6.7 2.7 4.4 5.1.3 3.4-2.3 2.9-.7 3.8 2.5 5.4.8 4.7 8.7 20.2 4.5 4.9.4 1.5-2.4 7.1-.2 5-4 8.6-1.3 7.2-1.7 2.5-12.7 7.4-1.7 5.6.1 3.7 3.2 7.1 4.8 7.8.2 4.5-4.5 8.9-2.3 9.4-2.2 15-7.4 26.3 1.4 23.8 1.2 4.1 7.5 8.4 4.3 3.3 8.1-1.6 5.1-3.1 9.7-15 2.5-7.6-.1 9.2M410.4 434.5l-1.5 3.9-5-.6-2.7 1-3.4 3.9-3.5 1.9-6.9 2.7-6.6 1.2M447.5 447.6l-1.1 5.5 4.7-.2 6.9 3.5 2.6 2.4.4 2.3-15.6 31.1M534.7 474.7l-1.7-4.4.3-2-1.6-8.9.6-3.9M540.2 470.2l-2.3-1.3-1.1-1.7-4.5-11.7 2-14.2.4-.9 3.3-1.2 6.5-4 3.5-.7 4.3-2.5 4.1-5.6 3.1-8.3M514.7 489.1l-3.5-3.7-7.3-3.1-2.2-2.8-5-2.6-1.1.8M503.9 482.3l-5.1 1.3-3.7-1.4M490.8 380.5l-7.7 26.9-3.4 5.3-2.1 6.3-.8 3.1.8 9.2-1.3 4.1-3.2 2.8-3.4-.4-3.4-2-2.1.3-3.9 6.4-2.4 1.4-7.8-1.9-9.3-4.1-.8-2.1 1.9-7-1.2-2.7-4.3-2.7-7.9-11.3 1.1-13.8M592.3 418.6l-9.1-2.1-11.3 6.1-1.9 1.9M591.8 386.1l-2.6-2.4-1.9-7.4-2.5-3.3-9.9-8-5.3-1.5-.4-2.6 1.5-5.5.3-11 1-.5M586.1 375.2l-15.5-6.8M576.1 293.9l-2.4-5.2.6-2.3 3.1-1.4 1.9.5 3.5 3.8 4.9 3.4.6 1.7-1.2-1.7-1.8-.3-1.6.6-2.3 12.1-2.4 4.2-3.4 9.1-2.1 18.7.8 3.4M561.3 331.6l-.7-7.3 1.5-4.6 4.2-6.4 1-3.6-4.7-12.5 1.9-2.2.4-12.8 2.2-13.1M602.5 502.8l-2.5-.9-4.3-4.4-4.2.5-1.7-.5-17.4-8.4-3.8-2.7-4-1.2-10.5-5M579.2 379.8l-5.4-3.5-1-2.2M587.7 446.6l-1-1.2 1.9-9.1.5-4.5-.5-2-15.5-2.4-2.7.3M426.8 333.9l1.8.6 7.2-2.9 8.2-7.8 2.8-7.3.7.6-.3 18.4-1.2 5.9.5 2.3-1.5 2.7 0 1.5 1 .9 4.5.7M1035.8 650.8l17.9 8.9M1109.1 651.9l.2-15.8-1.6-1.6-33.5-1.9-16.8-2.2-4 .3-14.1-1.3-12.2-2.5-5.3 1.3-3.2 5.5-1.4.6-4.2.1-1.5.9-3.9 9.9-1.7 1.5-3.4 1.6-5.1-.4-3.8.6-1.9 4.6M968.1 647.3l2.9-10.9-4-8.3 3.4-14.5 1.3-2.7 3.1-1.6 6.3-1.5 1.9-1.3 1.3-1.9 2.4-8 1.9-2.7 2.8-8.9 1.6-2.9 6.8-7.5 3.5-1.8 3.3-4.3 1.2.9 11.5-1.4 21.6 3.1 2.7 1.4.9 2.6-.1 3.1-2.4 10.2-2 2.7-1 3.5.5 1.8-5.6 20.9-3.6 3.7-6.7.3-2.8 2.8-1.2.2-47.5-6.1-2.6-1M1030.3 643.6l-2.6 1.7-4.9 1.2-6.8 9.1M672.8 463.1l1.8-2-.8-.4-1 2.4-3.6 3.5-.3 2.2 1.5 6.1.4 12.6 5.2 17.9 6 7.6 5.2 10.2 2.3 6.5 1.8 2 3.6 1 3.1 3.1 7.1 2 10.5 1.4 17.2 5.3 3.6.6 3.2-1.2M622.6 514.8l-.7-2.4-3.3-5-.6-9.9-5.6-7.5-2.8-6.3-.3-27.6 3.4-9 .3-3.5-2-2.7-1.5.1-.7 1.1-2.4-3.4 1-8.3 1.8-2.6 7.7.2 4.1 3.8 2.8 13.2 2.6 4.7 3.8 3.9 7.5 49.4-.9 2-15 .9-3.6-.4M629.9 524.7l3.3 7.9 2.6 2.9 8 .9 3.5-1.3 2.2-1.6 4.4-6.3-4.8-14.2-8.7-11.5-3.1 6.4-2-1.4-11.8 1.1-.1 5.9 1.3 1.8M599.9 572.4l62.3 8.1 9-18.7-22.2-6.8-10.8-2.5-23.6-11.9M691.3 531.7l-4.7-1.3-5.6-9.3-8.5-8.7-1.5-8.5-3-3.7-14-12.3-.6-5.3.5-3.2 3.3-6.4 1.5-1.5-.3 1.9 1.7 1.6.1 2.4 1.6-.3-.7-1.9.6-6.8-.8-6-1-.7-4 1.7 2.4 4.8.4 3.3M750.5 583.8l3.2 3.1-.1 3.1-1.5.9-8.1-.2-2.1 1 .4 1 3.6 1.8 5.4.8M671 503.9l6.3 3.4M600.7 574.2l10.1 2.2 43.1 4.6 62.2 8 38.7 6.3 10.9 1.1M607.4 540l7.2.6-8.5 2.3M596.8 530.6l1.9-2.6M607.2 534.5l-3.4-2.6-7-1.3-2.4 1.5M592.4 542.6l-2.2-1.4 4.2-9.1-4.7-3.1-1-2.5 2.4-4.8 7.6 6.3 1-1.6M721.6 580l-2.3 3.4-.7 3.2M671.2 561.8l3 .3 42.4 11.8 3.5 2.1 1.5 4 3.6-4.8M693.8 567.5l-7.7 15.5M804.4 637.2l-.5 16.2M858.1 640.8l.4-13.7M865.3 513l5.5-8.8 5.3-5.3 1.4 1.6 2.3 8.8-3.1 3.5-.9 2.5 6.7 9.2.6 10.6 5.4 15.8 1.4 1.8 6.4 3.2 10.3-2.8 1.9-4.1-2.8-8.5 4.3-13-.9-4.9 1.4-3.2 3.5-1.8 9.6-2.7 10.4-8.8 14.1-14.7 5-7 4.3-10.2 7.7-7.3 1.3-6 5.5-7.2 3.1-9.3-13.5-8.3-3.5-.2-3.1 1.8-4.4 4.4-1.8-5.5-1.1-.4-13.5 10.2-6.3 7.4-2.5.7-4.8 4.7-5 7.4-1.2.1-1.1-1.3-12.8 18.7-.9 11.9-1.7 1-.7-1-2.3-.1-1.6 1.4-11.9 2.4-3-1.1-2.2.3 15-22.9 3.6-12.3 4.4-4 1.9-3 2.3-7.5 1.5-1.9 7.6-2.6 5.4-11.1 12.8-15.1 2.9-10.5 6.7-6.9 2.9-10.3 6.8-9.5 12-6.7 6.9-10 13.3-12.1-.3-7 1.2-4.8 4.5-9.8 6.4-6.8.2-13.6 1.6-3.3 3.1-3.6 2.1-6.6 6.2-11.6.9-7.9 1-.8-.2-2.1-4.2-4.8-2.2-4.8-26.6-37.3-17.3-16-2-3.6-.3-2.7-2.4-3.9-6.6-7.1-4.7-3.8 3-6.7.1-12.5-3-.6-8.3 2.7-8.7.7-6.5-3.9-7.3-.6-2.5-3.6-1.2-3.3-2-22.9-4.3-17.6-2.1-13.9.8-4.4 9.5-22.7-1.1-10.4.6-4.6-.6-11.5 2.7-15.1.1-14.3-.7-9.1-2.1-11.2-.1-33M829.6 580.4l9.1-1.2 1.2 1.7-3 3.9-7.3-4.4M906.6 553.1l9.2 3.4 5.3-.2 7.8-2 10.4 1.4.8.6.1 1.7M790.2 609.5l-4.3 1.1-4.2-2.6-1.2 1 7.7 31.1 7.3 7.8.4 3.5-3.2 8.9M905.9 587.8l4.8 3.2 4 .9 2.2 2.8-1.8 6.3-2.6 5 2.4 1.9-1.3 1.9M766.6 555l7.4-1.6.3-1.4-1-6.2-4.9-14.7 4.8-20.6 5.1-2 16.5-12.2 1.3-2.4 1.9-1.4 2-4.9 9.1-11.5 5.5-3.5 8.4-3.8.4-1.8M858.1 640.8l-60.7-3.7-2.6-1.8-2.6-4.7.9-18.3-2.9-1.9M793.1 612.3l5.5-1.6.6-4M790.4 605.8l15.8 1.3 7-4.2 4.7.2 41.1 5.6.6 1.7-1.1 16.7 3.1 5.7 4.1 20.2M843.6 592.2l8.8 2.5 1.4 6.1 1.1 1.5-38.1-4.8-5-2.5-2.9-2.9-3.1.4-7.5-.8-1.8 2.2.2 3.5-.7 1.9M869.6 592l-.4-7.2-4.1-6.5-2.3-5.3-.6-3.5-1.7-1.3-2.1.5-4.2-.9-28.7 2-2.5 2.1-1.3 6.7-3.3-2-1.7-2.3-2.8-.5-.3 1.6 4.8 1.2M799.1 560.2l-5.9 1.8-1.5-.8-.3-4 .2-1.8 1.5-1.8-.1 3.4 2.6 3 3.5.2.1-2.1M787.7 550.2l13.8-.3M796.2 585.3l1.5-4.8 4.1-2.5 6 5.6 3.7-.8-2.6 9.3M800.8 591.7l-.5-1.7-4.1-4.7-2.3-5 .6-1.6 1.9 0 1.3 1.8M823.7 579.3l-.5-.8-1.5.1-.2 1.6M772.5 515.8l1-.5 3.9 1.1 4 2.4 10.5 8.3 10.3 9.7 7.7 4.2M769.1 527.5l2.4-.3 8.8-4.6 5-.8M799.6 555l4.1-2.8M757.2 545l2.6-.2 9.5 1.9M816.8 597.5l-9.6-.9-10.6 1.7-28.6-3.7M835.3 586.1l3.1 1.3-1.5 5.6-1.5.2-.9-.8M836.9 584.8l-1.6 1.3-1.2 3.4 1.4 10M836.9 593l1.2 4.1M860 551.7l6.6-9.9 3.9-8.2 3.7-11.9-.7-2.2-2.7-2-.9-3.7M853.3 596.9l2.5.5 9.1-.5 4.8-4.4 6.8.7 5.6-.6M861.2 549.1l.5-8.5M870.8 517.5l-2.3-.1-.9.7M854 587.5l-1.1 5.3.9 0-1.4 1.9M861.3 558.8l-.9 1.9-2.4.2-1.2 1.3 2.2 1.2 3.3-.5.9 2.2.6-.2M859.8 560.5l-3.4-.8-1.8-1.4.1-1.4-2.2-2.3-5-11.7-6.3-2.8M851 550.8l2.3-.5 4 1.3 2.6-1.9M862.3 562.9l1.3.3.3 1M853.8 600.8l-1 1.3M889.8 591.5l-6.5 3-10.9 2-6.3 4.6-4.3 2-6.9-.8M595.4 419.3l-3.1-.7-1.1 1.7.1 8.8 1.6 9.6-.7 2-3.9 3.8-.6 2.1.7 1.5 2.2.7 3.7 3.6.7 2.9M640.4 501.5l-3.9-25.8 3.1-6.3-1.7-2.7.9-3.4 3.1-2.6.5-1.6-2.5-9 2.3-3.3-1.4-3.3-4.1-4-.7-3.3-2.5-.6-4.1-4.6-2.2-4.8-1.9-.2M603.9 450.6l1.5 0 4.3-4.6-.9-3.9M597.8 407.4l-.9-1-3 .1M609.2 427.8l-7.5-1.9-3.6-3.4-1.7-3.2-.8-3.9 0-3.9 2.2-4.1 2.7 2-1.1 8.9.7 2.4 3.6 5.2M654 487.9l-6.3-10.1-4-4.7-.6-.6-2.6.3-.9-3.4M588.6 429.8l2.7-.7M833.7 421.7l-5-4.6-.1-3.9-2.2-2.4-1.5-4.9-5.6-3.3-3.2-3.7-7.5-.8-1.1-1.3 0-3.3 8.3-18.7 3.2-2.8-1.4-1.9-6.7 3.4-2 3.3-5.5 2.4-2.7 0-1.5-4.7-5.3-2.8-1.9-2.2 0-1.5-2.2-.7-1.3.9 1.6 4.2 0 2.3 1.7 2.2 2.5 1.4 1.6 4.1.2 5.3-1.6 3.4-1.7 1.7-4.1-3-2.2.7-1 2.9.2 6.6-1.3 1.4-1.9-.9-1.1-4-8.9-5.5-2.3-4.3-2.7-2.9-1.6-4.7-7.7-3.9-4.7-7.7-6.6-6.1-1.8-6.1-2.3-4.4-2.3-.3-.7 1.6 2.3 9 6.7 10.3 10.6 12.9 7.4 18.9 4.2 3.3-.1 1.2-2.8-.2-3.2-1.7-7.6-2.1-.9-1.9-5.8 0-3.4-1.6-1.5 1.7-3.5-.1-3.3-1.5-6.8 1.1-6.7-1.1-7.2.7-4 1.6-1.9-1.5-1.6-5.1.6-3.5-2.4-3.8-7.2-.1.3-3.3-10.8-6.8-16.2.5-2-.8-.5 4.6 2.7 13.8-.7 2.3.5 10.2-1 1.2-7.1-.3-6.5-6.3-5.4 3.4-.5 2.4-5.3 1.8-6.2 5.2-11.3 6.8-8.7 4.3-.9-.6-2-7.3-1.2-1.6-1.9-11.5-3.1-9.2-.2-7.2 3.6-28.7-2.4-41.6-2.2-4.3 1.2-8.5-1.8-13.3-4.5-11.3-4.5-6.9 7.7-24.1-.7-10.3 1.3-3.5 1.6-1 1.4-2.6-.7-2.1 1.7-1.9-4.1-23.4.2-11.7 2.3-4.2 13-17.7 9-15.1 2-2.1 8.9-3.9 2.7-.4 2-1.7-.1-1.1-14.2 6.3-7.5 6.2-6.8 14.5-7.6 8.3-6.5 13.3-.8 3.3 3.5 19.9-.6 7.4 1.2 6.2-1.8 2.8-3.9 2.4.5 10.3 1 2.5-.5 3.6-.7 1.6-1.3.5-2.2 5.1-2.8 11.1 9.5 18.3.9 4M691.2 378.6l-4.9-3-1.5-3.2-4.7-.7-2.5-1.7-1-10.3.4-2.9-1.1-1-1.4 3-4.6 1.6 1.5-3.7-.1-3.2-5.9-9.3-7.2-7.9-1.9-.7-2.9.3-7.1 2.7-1.4-.2-1.7-3.5 0-2.9 3.2-8.5 1.1-5.5.7-5.2-.1-8.2 4.7-3.8 9.2-2.2 2.5-1.5 12.2.6.9-3.2-1.1-7.6.4-3.1 5.6-8 3-2.6 5.5-2.3 6-3.5-.2-8.4 1.6-2.3 4.2-2.4.3-1.5M589.2 383.7l.4 9.6M612.3 320.9l-1.9-1.1-5.1.6-5.4 10.4-1.9 11.7-5.8 4.5-4.4.2M595.6 377.8l1.6-1.3-6.6-4.3-1.5-5.5-4.3-4.9-3-9.2M877.5 500.5l3.8-.8M933.5 408l-2.5-4.8-2.6-1.6-1.8-.2-5.5 2.3-8-.2-2.1 1-.4 2.5 1.3 2.1 3 .3 3.9-1.8 2.3-3.9M876.1 498.9l-.5-8.7-1.3-3.4 2.1-13.1 3.3-7.1-.8-11.9 2.2-11.8-1.1-5.2-4.4-11-1.5-12.1-2.7-5.2.7-3.8 1.8-3.3.7-8.2 1.2-2 3 .3 1.7-.7 4.7-8.2 3.5-3 3.5-5 5.8-3 6.1-1.9 7.4 1.4 2.2 0 1.4-1 3.1-9.2 1.2-7.6 1.2-21 3.4-5.9-3.1 1-8.9 5.8-1.7-.4-1.1-1.4-.7-2.9 1.1-6-2.5-.7-6.1 1.8-2.9-2.3-1.4-11.8-1.1.2-2.8 3.6-6.1 5.4-5.3 3.6-5.3-2.1-1.4-7 3.8-5.3.6-5.5-1.7-4.5 2.7-4.1 1.3-6.9 1.7-1.4 7.3-1.2 5.2-2.1-13.8-4.2-4.3-7-2.1-7.4 1.7.5 2.6 5.5 3.9 1.8 5.8-.5 3.3-1.5 9.5-6.2 2.9-3.6 4.7-3.3 1-6.8-.3-3 1.7-3.1-5.2-4.3-5.5-3.1-5.6-1.9-9.8 8.5-13.3 2.9-2.2-.6 1.3-7.6-.3-3.4-6.8-22.6 4.1-14.3 2-4.7 1.8-1.8-3.2-.7-.8-2.9.5-2.6 2.5-4.5 6.7-6.8.7-2.2-.8-.9-5.4 2-4.6.1-7.7-3.8-4.8-5-1.7-3.2 2-9.8-.3-2-4.3-9-1.6 9.7-5.3 5.1-4.2 10.2-.6 6-.8 1.2-2.5.7-5.2-4.4-1.9-6.7.6-6.5 5.6-12.1.4-4.3-3.8-21.2-2.7-5.2-.4-5.4-1.8-6.5-.5-8-.8-2.9-3.8-3.5-1.3.2-6 6.2M876.2 498.8l4.3-14.4 1-11.4 3.2-5.5 2.1-7.3-1.7-7.6 1.3-14.9-3.1-11.6-1.6-17.3-3-11.5.1-4.9 2.6-6.8 8-12.7 4.6-14.6 9.9-26 5.7-8.6M789.6 310l1.8 5.2M990.1 651.3l-1-2.4.8-.7 3.7.3M1074.4 630.8l-11.3 32.8M1014.9 625.6l-.6-2M1048.9 612l6.6 1.7M986.3 483.5l1.4-1.6 2-8.2 0-4.7 2.4-5.5 13.4-1 3.2 3.1 3.6 2.2 8.1 9.6 1.8 7.9 2.6 5.1-.4 5 1 3.1 3.9 5.2-1.7 3.3-2.9 10.2-.9 1.7-3.6 2.9-1.8 2.9-.4 3.6 1.7 6.2 5.9 13 5.3 6.7 5.8 2.6-.3 2.8-1.6-.1M995.9 463.5l3.6-2.8-1.2-3.8-12.6-6.9-2.1 1.3-2.7-.2-10.5 82 4.6.9 1.5-.6 2.6-17.2 8.8-8.8 1.7-.6 1.6-2.9-.1-5.4-1.5-6.2-1.1-1-3.1-.5M1076.6 568.2l.2-4.2-14.8-2.1-14.5-8.5-2.1-3.1-1.6-5.5-.4-16.2-22-89-.2-3.5 0-18.5 2.5-24.6-.8-6.4.9-4.6 1.7-3.8 5.2-3.9 3.7-1.3 1.8-1.6.2-1.8-.1-5.5-7-15.6-2.5-16.7 6.2-2.9 6.3-1.6 1.8-11.8 1.2-1.7 3.4-3.2 18.3-12.5 1.7-12.7-5.6-9.2-3-2.8-19.9.1-2.9 1-11.3 33.8 1.2 9.2 3 6.4M1147.6 575l.1-1.8-1.1-2.1-4.1-2.3-6.9-1.4-10.8 1-2.1-1.6 1.6-8-.3-5.5 2.5-16.9-.2-6-1.1-3.7-5.2-10.9-12.8-15.2-5.8-4.6-6-9.4-8.5-20.8-.4-6.1.8-7.5-4.3-14.8-33 9-10.8-34.8-.4-3 1.4-1.8 10.3-3.1 12.5-2.2 9.7 3.1.8 5.1 8.6 8.4 3.5 5.7 1.6 4.4-.1 6.4-4.1 2.8M987.1 508.8l6.7 19.8 3.1.8.6-3-5.2-12.6-1.1-9.9M1076.6 577.2l2.5-3.6 62.8 6.1 1.4 2.7.1 22.9-.8 2.2-1.5.4-31.8 5.6-.5.5 0 15.7-2.1 1.8-9.5.4-22.8-1.1-9.2-1.2-2.9-2.8M987.9 507.4l1-4.6M929.8 610.8l2 1.4 13.3 2.2 13.8 1.4 1.4-.6 12.2-13.1 5.2 1.5 2-1.7 4.7-9.4 12.1-19.9 1.1-2.9-.1-1.8-51.6-.9-2.9 10.4-10.5 11.6-2.7 21.8M996.9 571.7l.2 1 2.7 1.9M1027.1 626.9l-58.1-5.7M941.2 580.1l10 4.2 33.2 8.2 1.6-.7 4.8 1.3 14.9.6 33.1 5.9M1045.8 606.4l-2.7 13 2.3 3.5M1056.2 601.6l1.8 2.5-5.1 20.2-2.3 1.6-3.1-.7-1.4-2.9 6.2-19.9M1079.1 561.1l3.6-5 4.2-3.9 7.8-4M1079.8 567.3l4.5-3.1 2.1-.3M939.8 568.6l3.6 1.2M989.6 506.8l1.7 1.4M1070.3 575.4l-.8 2.3.7 0M1055.4 576.7l-6.8-.8M1060.1 578.9l-.1-1.5M1053.3 597.5l-1.3 2.2.3 2.7 2.8-1.1 1.1.3-.2-2.3 1.8-3 .3-3.3-1-8.3M1048.3 598.6l-2.5 7.8 4.6 1.4M1062.3 591.1l-1.6 1.9-7.4 4.5-5 1.1-2-6.1 10.9-4.1 5.8.8-.7 1.9M1069.4 593.6l1.3-1.5 2.7-10.5-1.1-2.4-1.6-.6-2.5 1.3-3.2 11.3 1 1.7 3.4.7M1148.6 532.7l2.2-2.4-19.9-20-2.7-4.8-2.3-2.3-.3-3.8-1.3-2.2-1.2-.8-3.9-.3-2.5-2.5-.2-4.4 3.7-5.6-.2-7.5-7.4-2.9-4.4 1.1-2.5 2.3-1 2.5 4.7 8.5 8.2 10.8 2.2-.8 1 .8 5.6 10.4 13 12.5 8 9 1.2 2.4-4.8 6.4-4.4 3.5-8.5-3.6-3.5.2-1.8 1.7M1124.1 552.8l4.3-3.5 13.4-1 1.9-.3 1.4-1.4-1-7.9-4.2-10.4-4.5-.8-9.9.6M1110.6 570.4l0-1.2.9 1.3M1110.6 569.2l-1.7-2.1-4.5-20.5M1152.1 591.2l1.6-.2M1154.2 590.9l1.7-.1M1125.9 539.6l-12.7 5.8-5.1 6.8-2.3 1.5M1123.1 567.7l12.4-2.5 10.6 3.8M1142.9 548.6l1 6.2M1139.4 542.6l3.5 6-2.7 5.5-6.9 5.9-10.6 6.8M1150.5 571.9l3.8-.2M1091.9 562.5l8.9 3.8 9.5 2.4 6.8.3M1090 562.5l-2.1.3-1.3 1M1025.1 452.9l4-.3 20-6M1021.6 413.8l-4.9-4.4-5-2.6-1.7-.1-1.1 1.1-1.9 4.3M1027.5 463.2l-4.8-2.2-1.6.1-2.1 4.8M1029.5 472.6l-2.2 0-3.8-2.1-2.4-2.9M1001.7 462.6l-2.2-1.9M1039.6 407.6l5.9 13.2 15.1 17.5 3.9 9 2.3 2.5 1.9.5 4-.1 3.4-1.7 2.4-.2 3.7 5.1.4 3.5 4 7.3M1064 298.1l4.4.9 14-8.6 3.2-3.1 3-1.1 3.1.2 2 1.4 13.3 1.6-2.6-6.1.4-3.4-1.3-3.8 3.7.2 7.5-1.7.8 2.9-.3 11-2.5 4.5-.5 2.9 3.3 20.4-.3 15.5-5.5 20.8 2.9 16.9 1 1.5 3 .3M1086.8 450.6l-2.9-3.3-5.8-3.9-6.6-2.6M1035.4 388.3l-.7 9.8 4.9 9.5-4.4-9.3.9-7.7-.7-2.3 2.6-15.8 3.1-7 1.2-6.4-.7-1.6-3.2-2.1-2.2 26.4M1036.8 401l4 1.7 9.7 1M1026.8 331.8l.4-7.9 10.8-14.4 10.2-16.7 3.2-3.7 5.4-14.6 1.5-.3M1026.9 326.7l-3.6-7-1.2-11.1 3.6-11.9 1.5-7.8 6.8-17 4.8-1.1 1.7-1.5 6.2-9.9 8.2-8 51.8-4.7 16.9-25.4M1073.1 405.1l1-4.5-.3-5.1M1041.1 357.2l1.5-3M1038.8 370.8l1.1-1.4 4.1-1.9 6.1-.9 1.8.5 1.3 2.3-1.3 3.3-3.8-1.1-2.2.8-2.5 5-2.6 2.2-.2 1 2.7.6 10.5-.1 2.8 4.4-1.4 3-6.8 5.6-7.5 1.4-3-.4-1.9 2.1-.2 2.1M1040.9 332.6l8.9-14.2.5-2.8M1039.3 327.3l-.2 5.1.5.7-3.2 4.5-.8 3.5 1.8 6.1-.5.9 1.5 1M1038.9 354.5l.6-5.1M1042.1 368.2l.3-1.2-1.2-1.9-3.3-3.4M1109.7 352l-4.3-4.7-.7-3-2.6-.7-2.1.8-1.5 4.3.6 4.2-2 11.7 1.6 8 4 5.4.2 2.8 2.2 2.6.3 3.7 5 7.2 2.6 7.1-.2.5-3.3-2.5-.1.6 3.8 7.4 1.5 7.8-3.6-1.6-2.1.9 0 5.4-.9 4.2-7 15.2-7.1 5.5-2.3 4.5-4.5 2.7M1093.5 445.4l-6.2 3-1.2-.6M1087.1 434.6l3.4 7.4 4.7 1.8M1117.6 498.4l-7.8 5.7M1134.9 403.9l1.5 2-.5 1.9-5.9.1-5.9 1.1.7-3.6M1199.6 401.9l2.2-.1M1196.7 412.8l.7.6-.6 14.6.6 11M1199.5 407.2l2.4 1 2-2.2M1198.1 412l11.3-.3M1202.6 402.3l-.5 2.2 1.8 1.5M1199.1 390.9l1.4 4.8-.8 1.1-.7 13.4M1202.4 404l1 1.5M1202.6 401.4l-.7.2.3.7.7-.2-.3-.7M1209.9 297.8l-2.3-2.8-1.7-.8-9.3-8.3-8.9-12.6-11.5-11.4M1213.4 303.4l-12.5-10.7-1.6 2.8-.6 8.3-.8.6-7.8-.2-.5-.8 0-10.7-1.9-1.2-1.6 1.8 2.1 2.4-.2 8-5.5 1.6-4.6-7-.2-7.2M1176.3 290.7l-1.7 1.4-.3 1.7 1.7 1.5.3 3.8 4.6 7.3-3.7 6.3-1.2 10.8M1202.9 401.6l1-.2.8.8M1197.4 413l.6-50.9M1122.7 408.1l-.1-1.9 4.8-1.9 2.7-3.3M1148.2 375.4l-.8.6-1.3 10.2 1 4.6 1.7 2.4 3.2 1.6 2.2-.3 2.4-2.3-.7-.7-6.2.7-2-.4M1152.9 371.5l2-.7 1.1.8-.4 1.3-1.3.7M1149.2 341.5l-.3-1.2-3.3-1M1200.3 361.9l-2.3.2 0-1.9M1179.6 318.3l-.8 1.6 0 2.6 1.1.5 1.3-.4.1-1.5M1178.1 318.6l1.7-8.4 3.2-3.4 5.3-1.1 10 .2.6.7M1183.1 306.8l-.6-1.5-1.6 1.1.9 1.2M1187.6 304.2l2.5 0M1198.7 303.8l.1 2.6M1197.6 327.7l1 6.8-.5 5.2-7.2.1-4.4 1-6.2-1.7-1.8 1.4.3 1.5 1.3.8 2.4-1.2 4.5.9 5.3-1.1 5.8.4-.1 18.4-5.6.7M1203.9 401.4l0-1.3 1.7-1M1204.4 397.2l-1.9-2-2 .5M1202.5 395.2l5.3-.3M1198.2 357.5l-2.5-.1M1203.9 400.1l-1.1-1.7-.5 1 1.1.2M1187.2 324.6l8.6 1.1M1198.3 339.4l.1 2.8M1198.5 325.5l-.2 3.1M1200.3 311.4l0 7 13.1.1M1199.8 372.7l-.4 3.9M238.2 242.2l2.5 1.6 23.9 9.2M235.2 231.5l6.3-2.1 3.4-2.1 2.4-3.4 3.3-.6 5.6-6.2 10.4-2.2 3.8.7 13.4-5.2M279.7 227.5l11-13.3 27.2-47.5 7.5-10.9 5.7-13.7 7.5-9.2 6.7-6.6 4.7-7.6 5.2-4.9 8-10.8 9.4-17.1 13.8-17.1 7.1-7.5 6-5.2 14.9-10 8.1-11.4 11.3-20.2.8-4-.6-5.5-2.1-3.2-5.6-5.5-3.8.1-.5-10.2M579.3 285.5l-2.8-3.7-3.5-2.4-2.9-.4-2.6 2 3.8 3.6 1.7 0M574 265.6l-3.5 2.4-1.2 2.2.3.8 7.3 1.7 3.4-.7 4.2.6 2.9 2.3M553.4 112.8l5.4-4.4 7.7-11.5.6-8.9 1.6-5.5-.5-5.5 2.6-13.6-.1-6.3-4.3-11.3-.2-4.8 1-3.6M531.6 178.3l-5.9 1.1-1.3-.8-1-3M432.2 17.3l8.3-.2 3.3 1.7 2.9 3.8M562.8 39.3l4.4-1.9 2.8-15.5 3.2-8.3 3.2-4.4 3.2-3 12.1-7.1 6.5-2.4 2.5-2 2.8-4.9 1.3-6.1M606.9 287.1l.7 1.9-.1 3.9-2.3 1.9M819.7 285.1l-6.4.3-5.5-1.1-4.1-3.5-3.4 1.4-1.2-.4-13.1-8.8-4.3-4.4-5.5-9.4-.6-3.6 0-12.2 4-9-.7-3.9.9-5-1.4-3.3-.4-3.5-3.4-6.1-2.7-2.5-9.9-1.9-10.3-3.9-4.2-3.3-9-9.1-2.1-1.4-2-.2-1.1-11.1-.6-2-1.5-1.6 1.3-5.8-1.6-5-11.9-5.5-2.1.2-3.3-1-4.9-6.5-7.1-1.6-1.7-1.4-1 .2-1.3 3-4.2.9-3.2 7.7 0 2-1.3 1-3.1-7.2-6.7-6.1M671.9 155l-3.5-5.9-5 .2-4.8-1.4-5.8 1.6-.5 1.1-.9-.6M653.5 146.9l-2.2 2-11.4-1.5-15.4-8.2-4.3-1.2M1065.5 149.8l-9.7 3.4-2.6 6.8.2 3.4 1.9 3.4.6 13.5 3.1 14 0 6.4-3.1 1.6-6-.2-9.2 2.4-3.1 2.9-.5 12.6-1.5 4.6-.8 13.8.4 12-.8 3 1.7 15.9-1.7 2.3-2.1-1.4-1.6-7.4-2.7-7.3-.3-6.2-1.7-4.2 0-5.9-1.6-7.7-3.7-7.3.4-16.4 2.5-6.2.7-6.1-4.5 4.5-3.9 2-1.6 0-1.3-1-2.7-9.1-2-3.5-7.1-6.2-7.1-9.4 3.5 1.9 3.5 3.7 7 4.6-6-10.7-4.7-6.6-5.4-5.7-2.2-3.9-1.4-12-3-5.1-1.9-8.3-2-23.6-2.3-3.7-16.8-15.1-9.6-16.9 1.3-3.7-2.6-3.9-.5-8-2.2-4-3.9-4.5-5.1-10-3.8-5-.1-3.5 3.4-5.9 2.1-6.7-3.2-17.8-5.6-9.3-6.9-6.9M731.3 174.6l3.8-4.6.8-2.2.4-3-.9-2.1-14.1-15.3-4-2.1-4.3-.7-2.5-1.3-.5-.8.9-1.8M912.2 244.3l6.5 1.2 2.2-5.6 2.6-2.4 6.3-2.6 4.1-6.6 6.7-19.4-.8-11.9 2.7-6.4-2.1-1.8-6-1.1-28.2-1-26.1 1.2-5.1 1.3-2.3 2.2M911.8 169.7l-.5 14.1 1.1 3M907.2 153.6l-.7 9.1-3 6-.5 4.8 7.5 5.7 1 2.6M600.7-5.3l.4 3.8M908.9 2l8.3-.9 5.5 3 6.1 6.8 2.2 7.9-1.4 11.3.6 2.9 1.5 1.6 15.9 29.9 5.2 6.9-16.6 9.3-6.9-4.9-2.2-5.4-.5-6.2-1.9-3.3-1.7-6.2-.7-6.3-2.2-2.1-.7-2.3-3.6.5-1.3-1.6-1.7 1-1.9-.1M818.8 36.1l7.7-1.3 10.6-5.9 4.2-4.2 3.2-5.5 1.8-8.7.8-12.2 3.9-6.1-.2-4.7M917.7 245.8l1.7.7.3-2.6M1034.4 253.4l3.6 1.9 8.5-1.3 7.4-2.1M1058.5 232.2l-1.8-5.8-.4-11.4 3.2-6.5.9-7.8-.7-4.3M1059.1 200.3l3-1M967-5.2l1.8 5.1 5.4 6.2 2.3 9.5 4.3 6.7 5.4 11.6.3 14.9 1 5.2-.7 7 1.2 4.1 5.3 5.5 5.5 3.3 8.4 16.7 7.8 8.6 1.3 5.2 1.3 9.4-.7 12.9-2.3 9.8-6.8 15.8-2.6 8.6.6 5.3 6.3 15.6-1.5 2-2.5-.8M1090.7 87.6l-7.5 2.9-6.6.1-7.9-1.4 0-2.8M1110.1 270.1l-.5-10.4-2.7-6-.7-4.2.5-2.8 17.8-1.4 20.6-.5 3.6-4.4-.2-.8-21.8-14.2-4.1-.5-.2-1.9-8.1-3.1-9.9-2.2-3.8-2.2-19.3-7.1-15.6-6.6-5.6-4.7-1.1-2.8 4.5-15.9 2.2-12.8.1-7.9-4.5-11.1-5.7-5.2-1.1-2.6 0-19.2.7-2.9M952.8 71.4l1.8 6.3 4.7 11.4 6.8 11.1 5.5 17.4 1.6 1.4 4.7.7 5.4 8.3M1076.3 122.3l10.6-9.6 7.3-8.9-1.5-6.7-5.1-2.4M1098.6 126.3l-2.4-1.2-13 2.4M1075.7 84.9l-2.2 1-1 4.1M1087.6 116.6l-1.2-6.6-2.9-.3-2.1-3.1M1082.1 107.9l1.1-2 0-2.6 2-.4 2.9-2.5M1068.5 150.2l-.6 1.3 4.3 13 4.1 7.9 8 12.2M1088.4 110.7l-3 2.1-4.5 1.4-7.9-1.3M1065.1 290l2.4-3.9 5-4.6 11-5.2 5.8-1 9.7 1.5 4.5-.7M1095.9 214.1l-3-7-5.4-9.4-.9-3.9-3.1-4.3-5.7-4.6-5.6-6-6.5-13.3M1071 89.7l.7-3.7-2.7-.6M915.6 186.8l1.3 1.6 2.4.4-.2 3.9 1.5 2.8-.2 3 .8 1.2 4.1 2 2.2 3.2.6 2.3 4.5 4.6.4 1.4 2.1.4 1.5 5.9M994.1 172.8l-10.7-4.9-7.5-7.1-6.9-2.6-5.2.8-6 2.2-4.6.1-3.4 1.1-1.3 4.7-2.7 4.9M1065 111.8l1.5.1-1.4.8 7.5-.3 1.4-2.7.1-2.4-1.6-.8-1.7-2.6M1081.8 107.2l-2.8-.2-1.5 1.2-3.8.2M1072.6 112.4l.2 1.1-1.7 2.2 2 1.5 4.7 6.6 2.2 0M1080.1 90.2l-3.4-2.4-.9.9.2 1.8M1078.7 107l.7-1.8 1.7-.4M1072.6 90l.6 3.1 6.5.6.8-1.1M1081.3 89.2l-1.5.3M1069.6 92.7l.6-3.2M1066.7 147.4l1.2 3.7M1082.9 113.9l-8.6 5.4M1074.3 90.4l-1.3 1M1072.8 92.1l-2.2 1.4M1014.9 135.2l4.3-3.2 15.9-18.2 1.2-.5 1.9 1.1 6.5 14.5.2 4.3-.8 4.4.8 2.9 3.3 4.9 1.5 14.2 2.4 2.2 1.2.1M1033.3 135.5l3.8-21.8M1163.6 225.1l1.8 9.3-.1 5.5-1.2.8-2.1-2.8-.7-4.1M1134.3 264.3l-1.3-4.4-8.5-14.6-1.9-20.4M1161.7 220.1l.6 2.7-.8 1-1.8-1-1.6-16.1-1.3-1.8.7-2.1M1137.6 195.3l1.6.3.7 5-3.3 6.3-.1 1.6-2.3 2.1-1 2.6M1148.7 234.3l3.7-2.2 2.7-.3 2.2.3 1.8 1.7M1116.3 200.5l1.6-2 1.1-3.1 2-1.4 7.2.4 5 1.7M1115.6 216.3l7.9-14.2 15.6-4.2-1.5-1.8M1164.8 232.3l-1.7 2.3-.3 4M1165.4 235.7l2.2-.4 1 7.8 2.4 4.9 5.4 6.6 5.4 8.9 3.3 4.1 2.8 1.7 7.5 7.2.2 2.8 1 1.5 1.4-.1 1.1-2.4 1.7-.4 3.7.6 2.8-.6 3.2 2.2 1.5-.9M1209.1 275.4l-1.5-1.8 0-1.4-4 .1-1.8-1.4-2.5-.1-.7-4.8.5-2.5M1165.2 247.3l-2.8-7.6-1-.8 1.1-.6M1137 195l1.5-2M1138.5 195.3l1.9-1.6.3 1.8-1.5.1M1162.1 200.8l-4.6 2-2.6-3.6M1156.8 202l-1.9 2-2.1-.3-3-2.2-3.1-1-6.8.1M1159.7 220.9l-1.9-1.6-1.7-.1 0-1.5M1156.6 219.5l-.5 2.3M1156.7 221l1.3-1M1157.8 219.3l-.3-2.5M1140.4 193.7l1.8-1.2M1165.1 226.2l-3.6-2.4M1207.9 221.5l-4.5 1.5 1.7 7.6 1.4 1.9 5.8 3.3M1179.1 218.2l-1.5 2.8 2.4 2.5 1 2.2-2.6 2.9-1.7.1-1.4-1.6-.3-1.8 2.2-1.4.4-2.9-2.4-3.3-.3-1.7-1.9-.8-3.1.6-1-1.6 1.4-1.6 1.8 1.4 3.1-1M1202.7 255l.1.6 6.6 1.8M1188.9 268.6l2-1.6 8 5.2-1 3.6M1200.8 275.4l-1.7 2.9M1195.4 276.5l2.5-.7 2.3.7M1198.8 279.7l7.1.4 1.7.4.3.9 2.6-1.3 1.3.6M1207.9 269.4l-7.1-4.9M1198.9 272.2l4.1-2.4.3-2.2-1.2-2.1-7.4-4.6M1203.6 272.3l-3.2.6.4 2.5 3.8-1.8.9-1.5M1210.3 287.7l-3.2 3.1-1.3-.3-1.2 2.6M1200.9 292.7l-7.3-7.2-7.1-10.3-3.9 2.4-10.6-.4-.9-6.3.7-1.7 7.1-1.6-3.4-3.5M1201.1 262.6l5.8 2.5 2.4-.7M1208.4 243l-3.5-2 .8-3.5M1208.6 257.2l-1.9.7-4.2-1.3M1204.8 249.5l2.3.3 2.4-.9M1206.4 214.7l-2.4-.3-2.3.6-.1 1-1.1.5-6.2 1.2.3-4.7-2.5-3.3-11.9-7.7-4.9-5-6.4.3-3.4 2.4M1207.3 212.2l-.9.7-1-.5-2.7.9-1.8-.2M1186.2 275.1l-5.7-6.2-2.3 1.5-4.7.2.2 4.1.7.8 7.9 0 2.8-1.7M1178.9 267.6l1.3 1.3M1182.5 251.9l6.3 7.4M1186.1 251.2l5.6 3.7M1163.3 228.7l-.1-.6-3.2-.2 3.7-.7 1.4-1 2 1.8 9.6.7.6 1.9-1.4 2.7 7.2 5.1 5.3 1.9 1.6 4.3.8 1.6.9-.3.4 1.5-2.2 1-.7-1.7-.7-.1-2.4 4.6-3.6.7-13.5-16.3-.1-.9 1.1-1 1.6-.3 2 1.1M1170.5 243l4 3.6M1172.9 247l.5-2.3 1.6-1.7M1170.1 242.1l2-2.6M1168.9 232.8l3.1 3M1188.5 246.6l.7-2.9 2.4-1.4 2.7 5 3.1 1.1M1189.2 246.7l1.6-.5 1.1 2.7 3.2 1.6M1191.7 245.9l1.8-.4M1192.1 247.4l1.9-.7M1190.2 246.4l.7 1.7M1189.6 260l1.8-3.5 7.6-7.7-.5-3.7-8.3-12.9-9-10.9-18.1-25.4-1.1-.9-.9.9M1116.1 89l1.4-4.7M1162.1 92.5l-1.4 2.5-.2 3.6 3.4 10.5 13.4 25.7 3.1 9.1-.7 5.2-4.8 12.9-6.1 12.4-.9 9.3 1 3.2 2.2.7M1139.1 197.9l4.7-2.9 3.2-.5 8.1 1.2 4.9-3.3 14.6-6 26.1 3.9 20 1.3M1163.1 105.3l.7-3.8 4.5-4.6M1118.4 166.9l3.1 2.2-.4 7.3 4.1 7.3-1.1 2.7-5.7 1.1-.6 3.4 4.5 5.1.7 2.1.2 3 1.3 2.9-.4 4.6.6 1.3 4.5 2.5 9.5 2M1127.8 85.5l-4.2 3.9M1203.4 209.5l-6.4.5.1 2.4 7.1 24.5.1 3.6 2.8 2.5M1143.8 65.4l-1.2 1.2-5.5 17 0 6.1 1.9 10.9-2.2 7.1M1197 210l-.8-6.5-9.8-7-6.7-9.8M1137.7 188.1l-1.5 3.2-3 .9-9.9.5-11.2-3.5-4.4 2.5-1.4 2.5 3.9 4.4 5.3 1.8 7.7.7M1157.8 83l-4.4 2.7 3.4 13.5 2.3 22.2 8.2 9.7 6.8 5.1 4.6 2.1M1091.5 95.1l15-7.4.9-2.7 3.5-1.6 0-.9M1090.8 95.7l-2.2-1.2 2.3-7.6 0-4.9M1119.1 143.9l9.7 10.2 13.8 31.5 0 3-1.3 2.3 2.5 4.1M1162 195l8.6-2.8M1169.3 188.3l3.6 8.5M1103.3 182.9l-1 3.6 3 4.6 1.9 1.3M1107.5 180.4l.8 2 2.5 1.4-1 4.6.4 1.5 4.8 5.6 10 3.4 4-.1 6.6-3.7 2 .2-.4 1.2-3.2 1-1.5-.5M1160 240.6l1.8.8 1.7 4 2.4 2.4 3.3.8 4.8-2 2.7.6 1.4-.4M1175.9 233.3l-7.5 5.1-5.4.5M1164.1 240.7l2.1 5 3 2.9M1168.4 238.4l1.1.6 1 4.7-1.4 1.1-4.7.3M1171.5 235.6l-3.9-.3M1168.4 186.3l-.4 1.8-1.5 1.4M1160.1 122.9l2.3-1.4 7.2-1.1M1089.3 95.1l3.3-1.5-1.3 1.1.5 1-.6.1M1113.2 100.5l3.6.9 1.2-3.6-3.8-1-1 3.7M1118 129.6l-4.3.7-2.7-1.4-1.8-4.7 1.1-6.5M1115.7 101.1l1 1.2-4-1 1.8 1.5M1112.9 108.8l1.3-4.8M1117.2 99.8l-4.2-1M1134.6 112.5l-3.3 2M1118.8 116.8l3.7-3 6.7-2.9-2-4.4M1116.7 137.5l-.8-1 2.7-2.5 5.6-1.7 1.9-2 .6-3.6-2.4-4.4M1101.4 137.6l0-2.9 3-4.9 5-5 4.9-3.5M1128.2 114.9l-.2 1-2.7-.1-1.4 3.4.4 3.1-3.2 1.1 4.6 1.6 6.1-.1M1109.9 130.2l7.3-3.2.2-2.2 3.7-1.4-1.7-5M1117.7 127.6l.6 1-.5 1.4M1120.5 119.1l.6-.8 2.9.2M1143.4 148.9l3.5 11.8 4.4 10.2-.9 8.9.8 1.5M1103.4 106.2l-1-.6-2.1 1.1 2.5-3.6 6.3-5.2 2.2.6M1128.2 94.8l1.8-1.9-1.2-5.5M1103.4 89.3l1.7 3.4M1104.8 98.3l-.7-6.2-1.2-2.5M1137.2 115.7l4 1.1-.3 2.6-2.8.8M1137.9 125l-2.8-.2.6-2.8M1138 126.9l0 1.8-4.8-.4.1-1.6-1.8-2.4-.2-9.4-3.1 0 1-4 5.1.5M1124 96.4l-1.5-.6-.7-2-1-.6-4.2.9-5.6-1.5-5.1 1.7 3.1-2.1-.3-.5 3.4-1.7-.4-1 1.2-.6 7.5 1.8-.7 2.4 1.1.6M1130.9 98.7l2-1.5M1119.5 100.9l1.5-.1.9 1M1110.1 118.6l-2.2-.4 2 1.1M1122.6 122.6l1.5 1.8M1113.7 112.4l-3.6-.9 3.6.9M1108.9 114.9l4 1-4-1M1112.3 134.4l-3.9 2.8-.2 1.4M1099.2 137.6l.1-5.9 1.7-5.5-.3-5.6.6-2.1M1100.2 117.5l-7.1 9.2-3.4 8-.1 2.2M1108 126.4l-9.4-.1-5.7 3.8-1.6 1.4 1.5 4.3-.2 1.9M1102.5 137.7l.4-5.2-2.2-4.4M1096.2 125.1l-4.2-3.3-2.7-1.1M1138 126.1l-.1-1.1 3-2.2 1.2 2.4 2-.6 0-1.1M1126.2 167l-6.9-14.6-1.3-4.9 1.5-5-.5-1.7-2.3-1.1M1101.9 140.5l.5 2.9-1.4 5.5-1.2.4-.1-.9 1.7-2M1119.7 92.6l-.8-1.2-1.1.6-1.6-1.4-2.6.1-.5-1.1 2-.9M1118.9 91.4l-1.1-1.9M1114.8 94.4l.6-3.1M1114.3 91.4l.8 1.2 1.4-.7M1101 148.9l1.7 1.2 2.7 0 4.9 1.9 6.2-.2M1139.5 119.7l.8-3.4M1117.4 124.8l-3.4-5.2M1128.8 98.4l.9-.3 3.1 1.3M1087.8 99.8l1.5-.6.8 1.9-4.9 2.3-1.3-.4M1097.7 110.9l1.4 1.4M1100 116.3l3.5 3.2 2.5 1.1 4.7-.2 4-2.4.9.8M1116.4 118.2l3-3.3M1115.5 119.1l.9-.9.9.4M1084 117.5l9.4-5.4 1.5 1.7 1.2-1.2-2.4-2.2-1.3.7-5.9-1M1096.1 112.6l4.2 3.7M1096.7 113.3l2.3-6.9.2-3.8M1118.8 107.7l-1-.6-1.6.6M1116.7 107.9l-.2 1-.5-.2M1112.3 105.7l2.7.6M1115.8 98l-.9 3.2M1111.9 142.4l.3 2.8-5 6.1.6 1.2-2.3-.3-2.8-2.1M1107.8 152.5l2.5-.5M1117.9 152.2l1.1-1M1122.5 159.6l-.3.7-4.2 1.5.7 5-3.4.9-3.8 2.9-5.2 2.2-3.3 4.4-1.2 3 .5 2.2 1.6.9 14.5 4.2M1102.3 143.8l11.3 1.7 5.1-1M1121.7 104.7l-1.6.8-10.6-2.8-.5 1.8M1110.5 117.2l.8-2.9M1111.4 113.8l1.1-3.5M1086.9 113l5-1 1.3-1.2M1091.5 107.3l-1.4-.2-2.4-2.5M1094.2 110.8l-3.8 3.1M1140.3 141.2l4.6-1.8M1120.1 105.5l-1.8 1.7M1121.1 168.4l2.7-1.7 2.4.3 4.7 10.2 8.4 11.2M1102.3 178.7l3 1.7 8.6-.2 9.5-4.3 7 0 6.9-2.1M1116.6 179.5l-.3 4.6 1.3 3M1116.3 183.8l4.8-1.6 3.5-2.4 7.4-.4 4.5-2.6 1.6.9-.4 3.6M1124.1 186.4l4 1.1 3.4-.3 7.8 1.2 2 2.5M1125.2 183.7l3.2-.6 3.8.6 6.8-2.5 1 2.8-6.7 3.7M1126.2 183.3l1.3 2.3-.3 1.7M1131.1 183.7l.4 3.5M1110.3 90.9l.7 1.7M1137 107.1l-1.5-1.2-1.7.6M1111.6 134.7l-1.2-2.7-3.2.3-.9-.7M954.1 67.7l1.9-6.2.1-5.4-2.4-6.8-5.3-5.3-.8-2-1.3-8.5.5-3.7 3.7-9.6 3.9-4-2 7.6 1.7 4.2 2.4 2.4 10.1 2.9 5.8-.5.1-1.2-2.3-4.6-.8-9.1 1.2-3.5 3.5-3.6.1-4.7M1078.6 26.6l-9.3 9.5-4.6 10.8 3.3 4.9 7.1 4.5M1068 51.8l.2-2.8 3.2-3.7 2.9-2.1 3.2-4 5-2.4.8-1.6 8.9-2.4 5.4 1.1-2.3 14.5-7.9-3.5-6.6-4.7-4.8-4.9-7-4.6-.8.7.2-7.7-2.8-5.5-.7-3.4-3.1.9-6 9.3-1 2 0 2.6-2.2 4.7-4.4 2.2-4.8 6.4M1080.4 58.9l-1.7.3-1 1.9-.4 6.3M1078.7 22.7l4.6 3.5M1070.4 79l1-1.5 3.9 3-1.5 2.4.2 1.5 1.7-.2M1076.3 85.6l-.6-1.4 1.6-2.2M1075.9 85.4l1-1.4M1078.2 20.2l-1.7 3.5-3.4 3.4 4 3.7 1.9.6M1070.2 85.6l-.7-1.4.4-1.6M1069.6 83.3l.9 1 1.4-.3-.1 1.4M1070 85.1l3 .5 1-1.2M1078.3 17.6l.7 13.8 1.5 4 2 1.4 4.4-.7 3.3-2.7M1061.7 63.6l-.4-4.7 2.1-6.2 9.5-13.7 11.8-13.7 2-3.8-1.7-16.1M1106.5 47.3l-3.8 2.6-.3 5.5-1.8 5.6-2.3 3.3-5.1 3.9-5.2 11.8-2.1 1.8 2.7-8.7-1.3-7.3-3.3-5.1-8.9-4.4-4.3.8-4.8 4.1-4.1 2-2.2 4.1-8.4 5.3M1116.3 6.2l1.8 5.4 1.9 3.3 0 4.9 1 4.9 2.6 4.4 4.9 4.1 2.2 3.7 1.8 6.9 2.7 2.8 6.4 1.9 2.6 1.7M1083.8 72.2l-.7 1-1-.3M1104.3 44.2l1.2-1.2 1.2.2-.2 4.1 3.8.7M1110 47.9l1.9 1.9-1.8-.3-.5 2.7 1 .8 3.7 7.8.6.3-.3-3.6M1087.3 65.8l1.1-2.7-.7-3.9.5-13.9M1097.5 64.7l16.6-.1.4-.8-1.2-4.1M1113.1 9.6l.5 1.6M1114.3 12.3l10.2-2.6M1145.7 57.4l-3.2 7.8.1 1.4M1102.4 55.4l2.6-1.7 2 .3.9-5.1M1103.9-1.4l-.6 1.1-1.1-2.7 2.2-2.4M1109.9 53.8l3 .4 1-1 .8.2M1142.8 59.6l2.7-5.2M1126.9 70l-4.3-.8-2.2.6-.4-1.8-9.2-.2M1116.4 65.1l-3.1 2M1119.6 49.5l2.8 5.9 5.4 3.1M1147 64.4l-8.7 1.7M1107.3 32.6l1.9.8 4.1 4.2M1107 54l2.8.5-.2-2.3M1095.9-1.5l1.8-.2.2 2.6 6.1.1M1089.9-3.7l1.4 2.1 1.8-.6M1104.8 44.3l3 .2M1109.3 41.7l-.7-1.6-.2 3.1-1.8.3M1109.5 42.8l.2 2.7-.8.6M1124.4 73l2.8.3-2 8.2-1 1.1-2.5 1-7.9-2.6-1-1.3M1110.2 30.5l.7-2.7 1.9.3M1112 22.3l2-.3M1127.2 73.3l2.2-2.4M1110.5 29.3l-3.4-.4-2.5 1.3M1105.2-10.5l-1.8.8 0 1.9-4.1.5 3 .7-3.4.4M1104.1 81.4l-.7-.3.4-.7.6.3-.3.7M1104.4 81l1 .3 2 3.7M1095.3 48.4l1.2 2.6M1087.5 80.5l3.2 3.8M1127.5 85l.4-3.3-.6-3.8-.9-.6M1104 80.4l.7-3.5M1103.4 9.2l4.2-.7M1104.6 3.1l1.4-1.8M1109.8 47.9l-1.2-.3.4-2.2-1.2-.9.1-.8 7.7 1.6M1104.6 39.3l1.2 0 6.1-4.8M1122 71.7l-.4 1.4-1.5.2-3-3.1 2.6-.5 1 1.1-2.2 7.8-2.3 0M1112.9 58.6l-3.5-.3-3.4.8-.5-1.8-1.5.5-1.1-2.9M1136.9 66.2l3.6-2.7 2.3-3.9 2.8-2M1129.8 53.9l-1.4 3M1084.8 71.7l2.8-.4 5.6-3.1M1083.9 71.6l.9.6-.8.2-.1-.8M1092.2 32.8l1.9-3.7 3.4-13.3 0-4.9-1.5-4.2.4-2.8M1117.1 70.2l-6.3-.2M1116.6 79.7l.3-.9-2.5-.6-.3.8-14-3.2-3.2 0-1 1.1 1 1.6-.8 3.7 5.6 1.3 1-4.1M1114.5 64l1.7.4M1114.5 59l2.5.5.3-1.5M1114.8 12.3l5.3 5.4M1094.2 27.6l-7.5-6.1M1095.3 66l-3.2-2.4-3.8-1.4-2.9.2M1120 68l-3.1-2.2-2-4.7"/><defs><path id="map-wide-rdm" d="M450.1 442l-2.6 5.6M1209.4 599.6l-18.9.1-6.9-1.4-26.5-14.6-6.1-1.2-.8-7.1M1221.3 582.3l-.4-20.2-2.1-21.6 2.5-17.2.8-22.4-19.5-27.8-4.9-19.8 2.3-155.8.6-2.5 2-2.5M1325.1 651.3l-8.9-57.7-22.5.4-17.5 5-54.8.5M1294.2 242.3l25.4-19.5 7.7-12.6 2.2-7 1-7.7-.5-9.1-13.2-82.8-12.2-33.4-3.5-25.9-3.3-16.5.3-10 6.9-18.3-.2-14.7M1367.7 646.5l-15.6-75.6M1397.6 642.6l-10.8-84.8-1.3-2.2M1304.4 637.9l-10.3 1.4M1305.1 623.7l-25.4 3.2M1355.7 587.7l-39.3 8M1451.3 598.9l-64.9-44M1299.9 508.7l10.1 0 8.9-2.7 19.1-17.9.8-2.6-.7-1.5-5.7-3.9-6-6.8-17.8-13.6-12.8-32-2.3-3.2M1451.3 343.8l-7.7-3.7-5.6-.5-17.1 5.5-3.8 3.3-2.5 4.3-1.5 7-10.6 21.3-8.2 11.2-13.5 23.6-24 28.2-4.4 6.6-2.3 11.1-.6 13.2 1.8 2.9 5.6 4.8 3.5 5.8-4.5 9.2-12 16.7-12.7-10.7-1.9-7.2M1330.1 581.4l-8-17.2-.4-4.9 3.2-5.9 18.6-15 11.1-15.3-10.7-8.8-17.7 23.1-8.5 5.9-9.3 4.2-12.3 1.4-13.2-.5-2.6 1.1-.9 2.1 2.8 22 27.1-3.1 2.4.6 1.9 3.5 2.6 19M1372.1 499.1l-17.5 24 18 39M1451.9 600l-1.1 4.5 1.5 4.6M1352.4 450.6l-17-5.9-9.3-1.4-4.9.4-17.1 5.5M1414.6 443.4l-33.8-27.6-2.2-2.2-1.5-5.1 6.5-29.3 3.3-5 5.9-5.4 1.3-2.6-.5-9.5 9.9-44.2M1451.9 397.2l-56.2 69.6-22.9 31.4M1372.9 498.9l-1-.5 1 .5M1303.7 369.9l-10.6 17.1 1.2 5.7 8.9 9.2 1.1 3.3-.4 2.5-9.7 16-2.7 1.8-20.6 6.3-6.8-.1-4.7-3.5-2.2-6.1-1.3-40.2 4.4-19.8-.6-8.1M1391.4 309.9l-21.7-74.7M1255.9 381.9l-1.2-.1-.1 1.7 1.9 41.8 2.4 4.2 2.5 2.3 4.7 1.7 3.6-.1 24.6-7.8 10.8-17.6.5-3-1.1-3.4-9-9.4-1.2-3.3.2-2.2 7.5-13.7M1258.5 354.1l.6 7.5-4.4 20.2M1451.2 431.9l-17.4-10.6-1.4.1M1450.9 281l-67.5.6M1450.5 200l-6.5-1.6-.9-1-2.7.4M1451.3 154.9l-8.5 40.2.3 2.3"/></defs><use href="#map-wide-rdm" class="mk-minorc"/><use href="#map-wide-rdm" class="mk-minor"/><defs><path id="map-wide-rdM" d="M1297.8 589.8l6.7.6 9.1-1.9 26.6-12.2-1.7-.2-24.9 10.5-15.8 3.2-258.8-25.3-32.3-1.7-111.2-2-28.7.7-46.4 4.1-51.4 8.6-24.8.7-22.6-3.6-75.7-21-12.4-4.5-11.8-6.3-29.9-22-11.4-6.7-74-31.9-80.1-42.2-18.4-5.2-46.7-3.5-12.2-3.4-11.3-5.2-13.2-9.7-56.8-50.3-60-55.9-11.6-9.2-47.1-32.9-73.2-44.4-12.9-4.7-29.4-5.2-12-3.3-7.4-3.4-32.2-18.4M1212.4 636.7l-3-37.1 12-.1-.1-17.2M1065.5 149.8l6.7 16.9 8.4 14.2 12.5 15.9 13.2 12.5 9.3 7 22.3 13.2 15 10.6 33.8 33.8 9.1 12.5 32.2 27.7 9.5 4.3 23.8 2.2-.9-5.7-4.3-8.7-3.5-11.8 0-9.6 2.6-8.8 3.1-5.3 5.3-5.5 30.6-22.9-41.3-74-2.6-6.4-.5-7.5 3.2-11.5.3-8.3-6.2-35.1-5.8-15.5-1.2-21.9-4.1-9.3-1.7-8.4.6-5.8 4.7-20.4-1.6-12.6 3.1-11.3-1.5-7.8M1129.3-10.7l1.1 3.7.6 11.1-1 11.6 5.1 13.8-1.9 18-3.5 9.5-3.2 7.5-3.6 3.2-4.4 1.3-11.8-.1-4.9 1-4.2 2.4-3.5 3.9-2 5.5-.3 4.9 5.9 12.9.5 4.7-1.1 4.1-3.1 4.5-10.4 6.2-3.3 3-5.2 9-2.6 14.6-2 2.3-5 1.9-4.8-15-2-11.1-1.4-31.3-6.4-12.2.1-9.2-2.8-9.5 1.1-4.9 9.2-14.5 4.8-18.5-2.6-23.2 4.2-12.5M1073.4 141.5l-4.3 6.6M1423.3 651l36.7-5.7M1441.7 647.3l-30.7 5.6M1256.1 306.2l3.1 20.1 3.3 10.7 2.9 5.4 6.1 8.1 6.8 5.9 30.6 20.9 13.6 12.2 6.1 11.4 6.4 21.4 9.1 13.3 4.9 4.2 7.8 4.2 8.2 8.1 32.7 14.2 34.3 23.8-45.6 64.8-12.8 6.8-33.4 14.6M1447.3 503.3l-15.3-13.2 21.1-16.9M1356.8 444l-12-14.3-3.9-6.7-2.9-8-2.7-17-4.8-8.7-5.1-5.4-6-4.2-38.2-24.5-7.7-6.3-8.2-12.1-2.9-8.1-1.1-8.1 17.2 1.6 16.1-1.5 63.9-16.8 15.8 2.3 61.5 13.2 7.1 2.4 14.7.8"/></defs><use href="#map-wide-rdM" class="mk-roadc"/><use href="#map-wide-rdM" class="mk-road"/></svg>
