<svg xmlns="http://www.w3.org/2000/svg" width="390" height="336" viewBox="0 0 390 336"><style>.mk-min{fill:none;stroke:#CFCABD;stroke-width:.5}.mk-idx{fill:none;stroke:#B3AD9F;stroke-width:.9}.mk-water{fill:#D3DEE2;stroke:#9FB4BD;stroke-width:.75;fill-rule:evenodd}.mk-glacier{fill:#E6ECEE;fill-opacity:.5;stroke:none;fill-rule:evenodd}.mk-stream{fill:none;stroke:#9FB4BD;stroke-width:.6}.mk-river{fill:none;stroke:#9FB4BD;stroke-width:1.2}.mk-roadc{fill:none;stroke:#8C8A83;stroke-width:3.5;stroke-linecap:round;stroke-linejoin:round}.mk-road{fill:none;stroke:#FFFFFF;stroke-width:2.5;stroke-linecap:round;stroke-linejoin:round}.mk-minorc{fill:none;stroke:#A6A298;stroke-width:2.2;stroke-linecap:round}.mk-minor{fill:none;stroke:#FFFFFF;stroke-width:1.4;stroke-linecap:round}.mk-trail{fill:none;stroke:#8F8A7E;stroke-width:.75;stroke-dasharray:3 2}.mk-border{fill:none;stroke:#66686D;stroke-width:1;stroke-dasharray:8 3 2 3}</style><path class="mk-water" d="M398-8l0 352-300 0 2.8-13.4 3.9-11.1 5.9-14.3 10-21.1 1.1-3.7-.3-17.9-1-4.6-.3-5.5 3-.8 6.3 2.8 1.6-.2 1.6-1.6-.9-5-4.6-15.6-5.4-41.7-.8-15.1.5-15 3.2-24.3.4-8.7 1.4-4.5 2.6-.1.3-15.6 3.1-17.7 4-16 2.4-4.4 4.6-5.4 1.8-4.1 2.3-8.5.5-10.5-.6-12-1.9-11.6-3.8-14.7-3.6-10.1z"/><path class="mk-min" d="M133.1-4l1.7 10 3.7 12 .6 10-1.1 4.1-2.6 3.9-10.7 8-2.9 4 .3 2 5.3 8 1.1 4-.1 6-1.7 6-4.7 6.4-1.4 11.6-5 16-7.6 19.3-2 18.7-4 5.7-13.1 6.3-4.9 5.2-5.4 2.8-.6 2 2 1.1 4 0 3.2 4.9 1.1 4-1.2 10 .6 4 6.3 9.2 6 2.7 1.9 2.1 3.1 12-.4 4-4.4 4-8.2 2.7-10 5.4-10 3.1-20 11.4-12 3.4-3.2 2-.6 2 1 2 2.8.8 2-.7 6-5.4 2 .1 10 8.6 2 .6 8-.8 1.8.8 2.7 4 2.7 10 6.8 11.1 1.2 4.9-.8 2-3.7 2-24.7 6.2-14 .5-6 2.4-5.2 4.9-1.9 4 .7 2 8.4 8.2 3 7.8-.5 4-2.5 1.2-2-.7-8-10.3-2-1.9-2-.5-2 2-4 7.6-2 1.4-6 0-2 .9 1.7 6.3M98.4 166l1.6-1.1 2 .6 2.6 4.5.1 6-.7 2-2 1.4-2 .1-2.2-1.5-1.9-4 .2-4 2.3-4M13.7 310l2.3 0 3.7 2 1.7 2-.2 2-3.2 1.2-4.6-1.2-1.8-2 0-2 2.1-2M53.4-4l-1 6 1.9 12-.7 2-4.3 4-15.3 9.2-26 6.6-12 4.7M-4 145.3l32-8 4-.3 2 .9 1 4.1-.4 6 1 10 9.6 14 5 12 1 6-1 6-3.2 6-7 8.2-6 3.9-14 3.2-24-3.2M32 182l4-.5 4 2.4 1.7 4.1-1.7 4.2-6 2.1-4 4.2-2 .6-8-4.8-4 .8-4 3.1-2-1.7.5-2.5 1.5-1.6 6.1-4.4 13.9-6"/><path class="mk-idx" d="M-4 178.6l20-10.1 8-.5 10 2.8 4.8 3.2 5.7 8 2 8-2.5 6.5-10 8.6-4 2.1-10-.6-8 2.2-4-.3-4.6-2.5-7.4-8.3"/><defs><path id="map-phone-rdM" d="M14.3 342.7l6.4-16.8 19.1-41.3 7.4-18.7 5-26.2 6.6-57.7 2.3-12.5 2-5.6 6.2-10.2 19.1-21.6 10.2-13.2 14.1-21.6 14.3-25.7 9-21 3-13.6 0-22-7.7-29.2"/></defs><use href="#map-phone-rdM" class="mk-roadc"/><use href="#map-phone-rdM" class="mk-road"/></svg>
